<?xml version="1.0" encoding="UTF-8" standalone="no"?>
<!-- Created with Inkscape (http://www.inkscape.org/) -->

<svg
   version="1.1"
   id="svg1"
   width="1648.5428"
   height="1834.8427"
   viewBox="0 0 1648.5428 1834.8426"
   sodipodi:docname="last.eps"
   inkscape:export-filename="../../Documents/projects/javascript/rhodorace/public/bg.svg"
   inkscape:export-xdpi="96"
   inkscape:export-ydpi="96"
   inkscape:version="1.3 (0e150ed, 2023-07-21)"
   inkscape:dataloss="true"
   xmlns:inkscape="http://www.inkscape.org/namespaces/inkscape"
   xmlns:sodipodi="http://sodipodi.sourceforge.net/DTD/sodipodi-0.dtd"
   xmlns="http://www.w3.org/2000/svg"
   xmlns:svg="http://www.w3.org/2000/svg">
  <defs
     id="defs1" />
  <sodipodi:namedview
     id="namedview1"
     pagecolor="#ffffff"
     bordercolor="#000000"
     borderopacity="0.25"
     inkscape:showpageshadow="2"
     inkscape:pageopacity="0.0"
     inkscape:pagecheckerboard="0"
     inkscape:deskcolor="#d1d1d1"
     inkscape:zoom="0.27374999"
     inkscape:cx="1647.4887"
     inkscape:cy="1333.3334"
     inkscape:window-width="1640"
     inkscape:window-height="1027"
     inkscape:window-x="0"
     inkscape:window-y="25"
     inkscape:window-maximized="0"
     inkscape:current-layer="group-R5" />
  <g
     id="g1"
     inkscape:groupmode="layer"
     inkscape:label="1"
     transform="translate(-510.88822,-415.91206)">
    <g
       id="group-R5"
       transform="matrix(0.99863069,0,0,0.99675397,3.6522243,7.3051413)"
       style="stroke-width:1.00031;stroke-dasharray:none">
      <path
         id="path3"
         d="m 13071.1,15325.7 c 3558.2,-2054.5 3076.4,-1213.7 3076.4,-5322.6 0,-4108.9 487.2,-3271.2 -3071.1,-5325.7 C 9518.2,2622.9 10487.2,2619.8 6928.96,4674.3 3370.7,6728.7 3852.54,5888 3852.54,9996.9 c 0,4108.9 -487.2,3271.2 3071.06,5325.7 3558.2,2054.4 2589.24,2057.5 6147.5,3.1"
         style="fill:#29472f;fill-opacity:1;fill-rule:evenodd;stroke:none;stroke-width:7.50232;stroke-dasharray:none"
         transform="matrix(0.13333333,0,0,-0.13333333,0,2666.6667)" />
      <path
         id="path5"
         d="m 15156.7,13493.5 c 401.4,-346.3 490.8,-703.8 500.3,-1474.8 H 4342.43 c 9.17,770.5 98.55,1127.6 501.85,1474.8 H 15156.7"
         style="fill:#ff0000;fill-opacity:1;fill-rule:evenodd;stroke:none;stroke-width:7.50232;stroke-dasharray:none"
         transform="matrix(0.13333333,0,0,-0.13333333,0,2666.6667)"
         inkscape:export-filename="test2.png"
         inkscape:export-xdpi="96"
         inkscape:export-ydpi="96" />
      <path
         id="path6"
         d="m 12816.5,14884.2 c 1292,-746 2002.9,-1075.8 2390.7,-1435.9 H 4793.7 c 387.76,359.2 1097.46,689.7 2384.92,1433 24.53,14.2 48.09,27.9 72.15,41.9 h 5498.43 c 22.5,-13 44.4,-25.8 67.3,-39"
         style="fill:#008000;fill-opacity:1;fill-rule:evenodd;stroke:none;stroke-width:7.50232;stroke-dasharray:none"
         transform="matrix(0.13333333,0,0,-0.13333333,0,2666.6667)" />
      <path
         id="path7"
         d="m 12816.5,14884.2 10.7,-6.2 H 7172.82 l 5.8,3.3 c 3263.28,1884.2 2374.6,1887 5637.88,2.9"
         style="fill:#ffffff;fill-opacity:1;fill-rule:evenodd;stroke:none;stroke-width:7.50232;stroke-dasharray:none"
         transform="matrix(0.13333333,0,0,-0.13333333,0,2666.6667)" />
      <path
         id="path8"
         d="m 8955.57,11031.7 c 891.35,0 1618.33,727 1618.33,1618.4 0,891.4 -726.98,1618.4 -1618.33,1618.4 -891.35,0 -1618.34,-727 -1618.34,-1618.4 0,-891.4 726.99,-1618.4 1618.34,-1618.4"
         style="fill:#ffd42a;fill-opacity:1;fill-rule:evenodd;stroke:none;stroke-width:7.50232;stroke-dasharray:none"
         transform="matrix(0.13333333,0,0,-0.13333333,0,2666.6667)" />
      <path
         id="path9"
         d="m 14493.9,13939.3 c 1410.2,-821.1 1144,-1009.6 1144,-3936.5 0,-3768.3 446.8,-3000 -2816.5,-4884.2 C 9558.14,3234.5 10446.8,3231.7 7183.56,5115.8 3920.27,6999.9 4362.17,6228.9 4362.17,9997.1 c 0,2310.8 -167.73,2915.7 454.75,3472.4 361.12,-116.5 656.85,-277.2 737.63,-273.4 183.53,8.5 251.83,25.6 704.24,-379.9 452.44,-405.5 497.24,-326.5 725.58,-313.7 228.34,12.8 418.26,-117.4 614.59,-232.6 196.34,-115.3 358.53,-38.5 486.58,-47 128.03,-8.5 328.64,98.2 832.28,98.2 503.64,0 1156.68,230.5 1224.98,341.5 68.2,110.9 170.7,55.5 367,42.7 196.4,-12.8 384.2,119.5 631.7,239 247.6,119.5 533.5,106.7 631.7,106.7 98.1,0 328.6,8.6 456.7,115.3 128,106.7 234.7,294.5 324.3,328.6 89.7,34.2 392.7,230.5 508,328.7 115.2,98.2 102.4,187.8 209.1,157.9 106.7,-29.9 98.2,-89.6 204.9,-81.1 106.7,8.5 68.3,29.9 217.6,-38.4 149.4,-68.3 145.2,-166.5 614.7,29.9 54.7,22.9 117.5,38.2 185.4,47.4"
         style="fill:#aabc6b;fill-opacity:1;fill-rule:evenodd;stroke:none;stroke-width:7.50232;stroke-dasharray:none"
         transform="matrix(0.13333333,0,0,-0.13333333,0,2666.6667)" />
      <path
         id="path10"
         d="m 15156.7,13493.5 c 401.4,-346.3 490.8,-703.8 500.3,-1474.8 H 4342.43 c 8.96,752.8 94.52,1110.9 474.51,1450.8 361.12,-116.5 656.83,-277.2 737.61,-273.4 183.53,8.5 251.83,25.6 704.24,-379.9 452.44,-405.5 497.24,-326.5 725.58,-313.7 228.34,12.8 418.26,-117.4 614.59,-232.6 196.34,-115.3 358.53,-38.5 486.58,-47 128.03,-8.5 328.64,98.2 832.28,98.2 503.64,0 1156.68,230.5 1224.98,341.5 68.2,110.9 170.7,55.5 367,42.7 196.4,-12.8 384.2,119.5 631.7,239 247.6,119.5 533.5,106.7 631.7,106.7 98.1,0 328.6,8.6 456.7,115.3 126.4,105.3 231.9,289.6 320.9,327.2 h 2605.9"
         style="fill:#aabc6b;fill-opacity:1;fill-rule:evenodd;stroke:none;stroke-width:7.50232;stroke-dasharray:none"
         transform="matrix(0.13333333,0,0,-0.13333333,0,2666.6667)" />
      <path
         id="path12"
         d="m 15595.2,12758.5 c 109,-515.7 42.7,-1294.4 42.7,-2755.7 0,-3768.3 446.8,-3000 -2816.5,-4884.2 C 9558.14,3234.5 10446.8,3231.7 7183.56,5115.8 3920.27,6999.9 4362.17,6228.9 4362.17,9997.1 c 0,900.5 -25.45,1541.9 -19.72,2022.3 39.54,11.8 82.09,27.6 132.96,41.3 175.01,46.9 217.67,231.5 284.89,235.8 67.22,4.3 92.83,52.3 207,59.8 114.18,7.4 264.63,-66.2 364.95,-145.1 100.29,-79 117.36,-66.2 245.41,-76.9 128.04,-10.7 341.46,-202.7 501.53,-360.7 160.05,-157.9 189.93,-147.2 339.33,-153.6 149.38,-6.4 85.36,8.5 172.85,-38.4 87.5,-47 93.9,-96.1 247.56,-138.8 153.66,-42.6 247.56,34.2 460.96,-136.5 213.4,-170.8 657.3,-119.6 904.86,-187.9 247.55,-68.2 478.02,128.1 699.98,222 221.93,93.9 68.29,128 332.9,153.7 264.63,25.6 281.71,119.5 537.79,85.3 256.08,-34.1 674.38,-221.9 1297.48,-68.3 623.2,153.7 836.6,559.2 990.2,640.3 153.7,81.1 55.5,179.3 226.2,175 170.8,-4.3 187.8,29.9 256.1,76.8 68.3,47 76.8,85.4 213.4,68.3 136.6,-17.1 119.5,-68.3 478,55.5 358.6,123.8 800.3,57.6 911.2,-8.5 111,-66.2 160.1,12.8 194.2,66.1 34.2,53.4 64.1,104.6 119.6,123.8 55.5,19.2 55.4,96.1 117.3,29.9 61.9,-66.2 185.7,-75.8 219.8,-82.2 34.2,-6.4 52.3,-19.2 89.7,3.2 37.3,22.5 14.9,6.4 84.3,4.3 69.3,-2.1 42.6,3.2 175,122.7 60.4,54.6 254.3,22.8 447.3,-27.8"
         style="fill:#91a060;fill-opacity:1;fill-rule:evenodd;stroke:none;stroke-width:7.50232;stroke-dasharray:none"
         transform="matrix(0.13333333,0,0,-0.13333333,0,2666.6667)" />
      <path
         id="path15"
         d="m 8141.67,10134.7 c -0.08,0.3 -0.23,0.8 -0.52,1.4 -1.71,3.6 -2.04,3.4 -8.7,6.4 -6.65,2.9 -10.92,11.6 -15.19,17.6 -4.25,5.9 -2.39,4.2 -2.55,7.2 -0.08,1.5 -0.18,3 -1.8,5.3 -0.24,-0.2 -0.53,-1.3 -1.06,-4.3 -1.61,-9 -13.14,-7.3 -15.7,-15.6 -2.58,-8.3 -2.24,-12.5 0.32,-13.9 2.56,-1.4 2.24,-3.5 8.32,-5.2 6.11,-1.8 12.83,-1.1 18.27,-0.7 5.46,0.3 9.62,2.8 14.42,2.1 1.43,-0.2 2.83,-0.2 4.19,-0.3 z m 4.29,-30.9 c 7.29,0.4 11.81,2.5 13.79,4.2 2.38,2.2 8.18,0.9 9.54,6.4 1.08,4.4 -3.08,6.6 -7.4,9.6 -0.77,-1.2 -1.83,-2.7 -3.27,-4.3 -7.53,-8.7 -11.85,-9.8 -12.01,-12.2 -0.12,-1.9 0.98,-1.4 -0.65,-3.7 z m -45.61,-43.5 c -0.13,1.4 -0.51,2.7 -1.16,3.8 -2.15,3.6 -1.58,1.9 -3.5,3 -0.49,-0.8 -0.67,-1.7 -0.35,-2.9 0.74,-2.6 2.89,-3.4 5.01,-3.9 z m 15.36,-113.8 c 3.23,2.4 6.52,4.7 10.43,5.9 11.87,3.8 10.51,3 22.06,19 3.9,5.5 4.58,8.3 3.39,10 -0.66,-0.7 -1.32,-1.6 -2,-2.7 -4.79,-7.6 -10.53,-7.3 -20.1,-15.6 -9.56,-8.3 -25.18,-2.8 -14.34,-15.9 z m -3054.07,1348.4 c 9.3,7.4 20.42,4.7 32.21,6.4 13.76,2 25.66,-4.9 41.26,-5.9 15.57,-1 34.82,-3 52.24,2 17.43,4.9 16.52,10.9 23.84,14.9 7.35,3.9 8.25,15.9 0.93,39.7 -7.34,23.9 -40.35,18.9 -44.93,44.8 -4.6,25.9 -2.76,2 -11,6 -8.26,3.9 -44.93,12.9 -52.26,25.8 -7.33,12.9 -15.59,10 -23.84,19.9 -2.28,2.8 -5.98,4.2 -10.31,5.1 -3.58,-7.5 -10.43,-15.9 -10.9,-19.5 -0.68,-5.1 -25.82,-7.3 -30.58,-13.2 -4.76,-5.9 -10.88,-6.7 -10.88,-22.2 0,-15.4 16.97,-11.8 16.97,-11.8 0,0 19.04,2.2 8.85,-16.9 -10.2,-19.2 -8.15,-11.1 -10.88,-22.1 -2.73,-11.1 -8.83,-5.9 -2.73,-11.8 6.13,-5.9 22.44,-1.5 14.29,-17.7 -8.16,-16.2 -17.69,-22.1 -12.24,-25.8 4.14,-2.8 19.77,0.8 29.96,2.3 z m 22.2,-211.3 3.17,0.4 c 20.18,3 23.83,-9 51.34,-9.9 27.5,-1 43.99,4.9 50.41,9.9 6.43,5 22.01,2 25.66,14.9 3.69,12.9 -15.11,18 -28.86,28.4 -13.74,10.4 -21.08,-2 -35.74,8.4 -14.66,10.5 -6.42,5.5 -11,14 -4.59,8.4 -5.51,7.9 -23.39,14.9 -13.62,5.3 -23.53,18.4 -32.54,30.5 -0.91,-0.5 -1.9,-0.9 -2.97,-1.3 -8.14,-3 -16.99,-35.4 -8.83,-37.6 8.16,-2.2 4.08,2.2 15.64,-6.7 11.55,-8.8 0,-14.7 23.79,-15.4 23.79,-0.8 22.41,0 29.22,-1.5 6.8,-1.5 14.95,-11.1 -14.27,-21.4 -29.24,-10.3 -29.91,-7.4 -30.6,-14 -0.42,-4.2 -6.73,-9.2 -11.03,-13.6 z m 12.59,-364.6 2.03,0.6 c 31.93,8.9 28.29,6.9 59.3,44.5 10.49,12.8 12.31,19.4 9.09,23.5 -4.09,-4.3 -8.62,-8 -13.9,-10 -13.25,-5.2 -13.94,-4.8 -17.32,-11.1 -3.4,-6.3 2.7,-2.6 -8.18,-10.3 -10.87,-7.8 -16.3,1.5 -26.5,-6.3 -10.2,-7.7 -24.1,-11.4 -21.39,-21 2.35,-8.4 11.42,-7.8 16.87,-9.9 z m 2983.24,-929.3 h 4.36 l 0.74,-0.1 h 7.29 l 0.72,0.1 h 0.61 0.12 0.73 0.73 0.73 0.73 0.74 l 0.72,0.1 h 0.73 0.26 0.48 l 3.63,0.2 h 0.73 0.66 0.09 l 0.72,0.1 4.38,0.2 0.3,0.1 4.82,0.3 0.69,0.1 h 0.04 l 5.02,0.5 h 0.09 0.34 l 0.4,0.1 5.11,0.6 3.5,0.4 0.71,0.1 0.69,0.1 0.58,0.1 h 0.11 l 0.71,0.1 0.69,0.1 0.69,0.1 0.71,0.1 0.68,0.1 0.68,0.1 0.71,0.1 0.44,0.1 h 0.24 l 2.06,0.3 0.69,0.1 1.38,0.3 0.67,0.1 h 0.34 l 0.35,0.1 0.68,0.1 0.69,0.1 1.35,0.2 0.68,0.1 0.68,0.1 0.68,0.2 h 0.21 l 0.48,0.1 0.67,0.1 0.66,0.1 0.7,0.1 1.35,0.3 0.65,0.1 0.68,0.1 h 0.08 l 0.59,0.1 0.67,0.2 0.68,0.1 1.33,0.2 0.68,0.2 0.65,0.1 0.64,0.1 h 0.03 l 0.66,0.1 0.66,0.2 0.67,0.1 0.66,0.1 0.67,0.2 0.65,0.1 0.66,0.1 0.53,0.1 0.14,0.1 0.66,0.1 0.66,0.1 0.65,0.1 0.67,0.2 0.66,0.1 0.64,0.2 0.67,0.1 0.39,0.1 h 0.25 l 0.67,0.2 c -11.84,14.1 -22.21,25.1 -31.4,33.6 l -7.01,6.4 -6.93,-5.5 c -12.37,-10 -27.03,-24.1 -44.73,-44.2 z M 5950.18,10414 c 4.12,-2.9 8.2,-6.1 12.26,-9.4 18.22,-15.1 38.45,-30.7 60.25,-46.3 10.28,16.3 -8.65,9.4 -20.44,21.3 -12.42,12.4 -19.87,11.9 -26.08,23.4 -5.78,10.6 -9.76,9.6 -25.99,11 z m -118.55,42.6 c 27.53,-2.4 55,-8.5 81.79,-21 -5.36,6.5 -8.04,12.3 -5.52,14.2 6.21,4.7 8.69,-5.7 15.72,-4.2 7.04,1.6 24.83,7.3 31.87,9.4 6.05,-2 9.18,8.7 5.64,14.7 -3.53,6 -1.03,0 -8.11,7 -7.06,7.1 0,1.6 -0.62,5.8 -0.62,4.2 -5.41,8.1 -6.85,11.8 -1.46,3.6 -0.63,6.8 1.25,10.4 1.85,3.7 1.65,1.6 6.22,1.3 4.58,-0.2 9.57,10.5 19.13,14.1 9.57,3.7 7.48,2.1 16.63,3.7 9.14,1.6 10.81,-4.7 23.28,-5.2 12.47,-0.5 19.95,2.6 22.87,5.2 2.9,2.6 9.97,1.1 11.63,7.8 1.66,6.8 -6.85,9.5 -13.08,15 -6.24,5.5 -9.57,-1.1 -16.22,4.4 -6.65,5.5 -2.9,2.9 -4.99,7.3 -2.07,4.5 -2.49,4.2 -10.6,7.9 -0.97,0.4 -1.89,0.9 -2.79,1.6 -8.84,-3.7 -14.8,-7.5 -19.41,-17.9 -10.03,-22.8 -81.2,-26.8 -95.79,-42.6 -14.59,-15.8 12.78,0 -26.45,-31.7 -31.67,-25.5 -8.07,-5.3 -25.6,-19 z M 12603.5,4992 C 9597.55,3235.7 10371.8,3275 7183.56,5115.8 c -49.89,28.8 -98.84,56.9 -147.01,84.5 -15.71,9 -30.82,17.6 -46.34,26.5 -32.83,18.7 -65.74,37.5 -97.77,55.7 l -41.17,23.4 c -32.07,18.2 -64.11,36.3 -95.37,54 -17.43,9.8 -34.34,19.3 -51.53,29 -27.62,15.6 -55.33,31.2 -82.31,46.3 l -40.41,22.7 c -30.66,17.2 -61.27,34.3 -91.09,51 l -29.09,16.2 -97.27,54.2 -15.88,8.8 c -179.55,99.9 -342.9,190.2 -492.14,273.6 l -0.9,0.5 c -31.12,17.4 -61.64,34.5 -91.52,51.4 l -5.23,2.9 c -28.43,16 -56.32,31.7 -83.63,47.2 l -9.63,5.5 c -26.46,15.1 -52.46,29.9 -77.9,44.5 l -9.45,5.4 c -24.88,14.3 -49.37,28.5 -73.28,42.4 l -11.36,6.7 c -23.65,13.8 -46.93,27.4 -69.65,40.9 l -8.24,4.9 c -23.11,13.8 -45.83,27.4 -67.98,40.8 l -7.76,4.7 c -22.35,13.6 -44.32,27.1 -65.7,40.4 l -3.65,2.3 c -208.96,130.1 -371.95,247.6 -498.68,369.4 l -1.8,1.7 c -12.65,12.2 -24.83,24.5 -36.78,36.8 -1.63,1.7 -3.36,3.4 -4.98,5 -11.09,11.6 -21.75,23.2 -32.23,34.9 -2.3,2.5 -4.69,5.1 -6.95,7.6 -9.68,11 -18.99,22 -28.14,33.1 -2.85,3.4 -5.79,6.9 -8.59,10.3 -8.56,10.6 -16.82,21.3 -24.93,32.1 -3.01,3.9 -6.09,7.9 -9.04,11.9 -7.69,10.5 -15.11,21.1 -22.41,31.7 -3.06,4.4 -6.13,8.9 -9.11,13.4 -6.96,10.4 -13.69,21 -20.26,31.6 -2.95,4.8 -5.87,9.5 -8.74,14.3 -6.34,10.6 -12.46,21.3 -18.44,32.1 -2.82,5.1 -5.64,10.2 -8.4,15.3 -5.67,10.6 -11.18,21.4 -16.54,32.2 -2.74,5.6 -5.45,11.2 -8.11,16.8 -5.08,10.7 -10.02,21.5 -14.79,32.4 -2.61,6 -5.14,12 -7.65,18 -4.6,11 -9.09,22.1 -13.4,33.3 -2.37,6.2 -4.67,12.4 -6.94,18.6 -4.11,11.2 -8.14,22.6 -11.98,34 -2.29,6.8 -4.47,13.7 -6.64,20.6 -3.59,11.3 -7.14,22.6 -10.5,34.2 -2.1,7.2 -4.08,14.6 -6.09,21.9 -3.2,11.7 -6.38,23.4 -9.36,35.4 -1.88,7.4 -3.61,15.1 -5.39,22.7 -2.83,12 -5.66,24.1 -8.28,36.4 -1.7,8 -3.25,16.2 -4.87,24.3 -2.49,12.5 -5,25.1 -7.28,37.9 -1.44,8 -2.73,16.2 -4.06,24.3 -2.22,13.2 -4.46,26.4 -6.48,40 -1.33,8.8 -2.48,18 -3.72,27 -1.83,13.2 -3.68,26.3 -5.35,39.8 -1.22,10 -2.26,20.3 -3.39,30.4 -1.49,13.2 -3.04,26.3 -4.37,39.8 -1.21,12.1 -2.21,24.7 -3.31,37 -1.04,11.9 -2.18,23.5 -3.15,35.7 -1.95,24.8 -3.68,50.1 -5.25,75.9 -0.47,7.6 -0.82,15.6 -1.24,23.3 -1.06,18.9 -2.11,37.7 -2.99,57.1 -0.41,9.2 -0.72,18.8 -1.1,28.2 -0.74,18.6 -1.5,37.1 -2.11,56.3 -0.28,8.9 -0.47,18.1 -0.72,27.1 -0.56,20.3 -1.11,40.6 -1.54,61.5 -0.17,8.4 -0.27,17.2 -0.42,25.7 -0.38,22 -0.74,44.1 -0.98,66.8 -0.1,8.1 -0.12,16.6 -0.19,24.8 -0.21,23.7 -0.37,47.7 -0.44,72.3 l -0.03,22.4 c -0.03,26.3 -0.02,53.1 0.07,80.4 l 0.07,16.6 c 0.13,29.5 0.33,59.6 0.58,90.2 l 0.12,13.2 c 0.29,33 0.65,66.7 1.06,101 l 0.02,2.8 c 3.32,274.8 10.13,592 14.38,962.5 l 0.08,6.1 c 0.52,46.9 1.02,94.6 1.45,143.2 1.34,146.5 2.18,300.6 2.18,463.6 0,273.5 -2.36,523 -5.46,751.4 45.4,-21 67.85,-49.1 111.88,-58 23.79,-4.7 46.95,-12.5 69.6,-20.2 -1.73,2 -3.34,4 -4.21,5.9 -2.37,5.1 -1.02,9.6 2.04,14.7 3.05,5.2 2.72,2.2 10.18,1.9 7.48,-0.4 15.65,14.7 31.28,19.9 15.63,5.1 12.23,2.9 27.18,5.1 14.97,2.2 17.68,-6.6 38.06,-7.4 20.4,-0.7 32.63,3.7 37.39,7.4 4.74,3.7 16.31,1.5 19.02,11.1 2.73,9.6 -11.2,13.3 -21.4,21 -10.19,7.8 -15.63,-1.5 -26.5,6.3 -10.88,7.7 -4.76,4 -8.16,10.3 -3.39,6.3 -4.08,5.9 -17.33,11.1 -13.25,5.1 -21.77,20.3 -30.25,30.6 -8.5,10.3 -4.77,7.3 -5.1,12.5 -0.34,5.2 -0.74,10.7 -25.49,25.8 -24.76,15.1 -34.57,51.5 -29.8,53 10.27,3.1 49.96,-24.1 74.64,-20.6 10.19,1.5 19.04,-3.6 30.58,-4.4 11.55,-0.7 25.83,-2.2 38.74,1.5 12.92,3.7 12.23,8.1 17.68,11.1 5.45,2.9 6.11,11.8 0.68,29.4 -5.44,17.8 -29.91,14.1 -33.32,33.2 -3.4,19.2 -2.03,1.5 -8.14,4.5 -6.12,2.9 -33.31,9.5 -38.76,19.1 -5.42,9.6 -11.55,7.4 -17.65,14.8 -6.13,7.3 -17.68,6.6 -23.8,14 -6.12,7.3 -5.44,23.6 -5.44,23.6 0,0 5.44,0 14.95,0 9.52,0 34.67,15.5 46.22,19.9 11.56,4.4 21.08,0 34.65,2.2 13.62,2.2 9.52,11.8 9.52,11.8 0,0 21.75,11.8 23.12,17 1.36,5.1 -14.27,14 -14.95,20.6 -0.69,6.6 -1.37,3.7 -30.6,14 -102.2,36.1 -7.82,22.2 14.96,22.9 23.77,0.7 12.24,6.6 23.79,15.4 11.57,8.9 7.47,4.5 15.64,6.7 8.16,2.2 -0.7,34.6 -8.84,37.6 -8.16,2.9 -11.56,8.8 -14.95,18.4 -3.41,9.6 -1.36,11.1 -5.45,17 -4.07,5.9 -23.1,9.6 -23.1,9.6 0,0 8.83,36.1 25.83,30.2 16.98,-5.9 13.63,41.9 20.41,42.7 6.8,0.7 40.06,-22.8 45.51,-19.1 5.43,3.7 -4.09,9.6 -12.24,25.8 -8.16,16.2 8.15,11.8 14.28,17.7 6.11,5.9 0,0.7 -2.72,11.8 -2.74,11 -0.7,2.9 -10.88,22.1 -10.2,19.1 8.83,16.9 8.83,16.9 0,0 16.98,-3.6 16.98,11.8 0,15.5 -6.12,16.3 -10.87,22.2 -4.77,5.9 -41.76,8.1 -42.43,13.2 -0.68,5.2 11.16,8.9 13.2,17 2.05,8.1 20.39,-2.2 29.23,2.2 8.83,4.4 9.5,5.1 25.15,7.4 15.63,2.2 -4.77,14 -3.42,25.8 1.37,11.8 1.37,8.8 9.52,20.6 8.14,11.8 0,5.9 -10.87,22.1 -10.89,16.2 -23.11,32.5 -23.11,44.3 0,11.8 8.16,-7.4 27.18,17.7 l 29.92,1.4 c 0,0 13.59,16.3 24.45,41.3 10.88,25.1 9.52,19.2 14.96,51.6 5.43,32.5 20.39,22.1 6.8,44.3 -13.6,22.1 -25.83,22.1 -13.6,33.9 12.23,11.8 38.06,-16.2 39.42,35.4 0.48,18.1 2.98,29.8 5.98,37.5 0.1,21.5 13.02,21.5 13.12,0 3.02,-7.7 5.08,-2.7 5.98,-37.5 2.6,-98.5 57.92,-17.1 25.83,-69.3 -13.59,-22.2 1.36,-11.8 6.81,-44.3 5.42,-32.4 4.07,-26.5 14.94,-51.6 10.88,-25 24.48,-41.3 24.48,-41.3 l 29.9,-1.4 c 19.02,-25.1 27.19,-5.9 27.19,-17.7 0,-11.8 -12.24,-28.1 -23.12,-44.3 -10.86,-16.2 -19.02,-10.3 -10.86,-22.1 8.15,-11.8 8.15,-8.8 9.5,-20.6 1.36,-11.8 -19.04,-23.6 -3.4,-25.8 15.63,-2.3 16.3,-3 25.15,-7.4 3.38,-1.7 10.23,0.5 17.5,3.4 -3.74,0.9 -6.92,2.3 -8.96,4.8 -79.02,95.2 -21.35,37.7 24,37.7 12.84,0 46.76,20.9 62.35,26.9 15.58,5.9 28.4,0 46.74,3 18.34,2.9 12.83,15.9 12.83,15.9 0,0 29.34,15.9 31.19,22.8 1.82,7 -19.27,18.9 -20.18,27.9 -0.93,8.9 -1.83,4.9 -41.26,18.9 -39.42,13.9 -28.41,26.8 -19.25,28.8 9.18,2 7.34,1 39.42,2 32.08,1 16.51,9 32.09,20.9 15.57,11.9 10.08,6 21.08,8.9 11.01,3 -0.92,46.8 -11.9,50.7 -11.01,4 -15.61,12 -20.18,24.9 -4.59,13 -1.83,14.9 -7.33,22.9 -5.51,7.9 -78.62,38.7 -78.62,38.7 0,0 59.37,22.9 82.28,15 22.9,-8 29.32,34.8 38.49,35.8 9.16,1 43.09,-9 50.42,-4 7.35,5 -5.5,12.9 -16.51,34.8 -11,21.9 11.01,15.9 19.27,23.9 8.25,8 0,1 -3.68,15.9 -3.69,14.9 -0.92,4 -14.67,29.8 -13.75,25.9 11.92,22.9 11.92,22.9 0,0 22.9,-5 22.9,15.9 0,20.9 -8.26,21.9 -14.68,29.9 -6.42,7.9 -40.34,10.9 -41.25,17.9 -0.9,6.9 -20.06,27.7 -17.31,38.7 2.75,10.9 46.65,-18.9 58.56,-12.9 11.93,5.9 12.85,6.9 33.93,9.9 21.08,3 -6.44,18.9 -4.59,34.9 1.83,15.9 1.83,11.9 12.83,27.8 10.99,15.9 0,8 -14.68,29.8 -14.66,21.9 -31.15,43.8 -31.15,59.7 0,15.9 10.99,-10 36.66,23.8 l 40.33,2 c 0,0 18.34,21.9 33.01,55.7 14.66,33.8 12.83,25.9 20.17,69.6 7.33,43.8 27.49,29.9 9.16,59.7 -43.28,70.5 31.35,-39.4 34.83,93.5 1.24,47 4.01,40.3 8.09,50.5 0.13,29.1 17.55,29.1 17.67,0 4.08,-10.2 7.45,-26.1 8.09,-50.5 1.84,-69.6 36.66,-31.8 53.16,-47.8 16.5,-15.9 0,-15.9 -18.33,-45.7 -18.34,-29.8 1.83,-15.9 9.17,-59.7 7.34,-43.7 5.49,-35.8 20.16,-69.6 14.67,-33.8 33.01,-55.7 33.01,-55.7 l 40.33,-2 c 25.67,-33.8 36.67,-7.9 36.67,-23.8 0,-15.9 -16.5,-37.8 -31.17,-59.7 -14.67,-21.8 -25.66,-13.9 -14.67,-29.8 11.01,-15.9 11.01,-11.9 12.83,-27.8 1.84,-16 -25.67,-31.9 -4.59,-34.9 21.09,-3 22.01,-3.9 33.93,-9.9 11.91,-6 36.66,7.9 39.41,-3 2.75,-10.9 18.72,-15.9 17.81,-22.8 -0.92,-7 -50.82,-10 -57.22,-17.9 -6.43,-8 -14.68,-9 -14.68,-29.9 0,-20.9 22.9,-15.9 22.9,-15.9 0,0 25.67,3 11.91,-22.9 -13.74,-25.8 -10.98,-14.9 -14.65,-29.8 -3.68,-14.9 -11.94,-7.9 -3.68,-15.9 8.26,-8 30.26,-2 19.26,-23.9 -11,-21.9 -23.85,-29.8 -16.5,-34.8 7.32,-5 52.2,26.7 61.37,25.8 9.15,-1 4.62,-65.6 27.54,-57.6 22.91,7.9 34.83,-40.8 34.83,-40.8 0,0 -25.67,-5 -31.17,-12.9 -5.5,-8 -2.76,-9.9 -7.34,-22.9 -4.58,-12.9 -9.16,-20.9 -20.17,-24.9 -10.98,-3.9 -22.91,-47.7 -11.92,-50.7 11.01,-2.9 5.52,3 21.1,-8.9 15.57,-11.9 0.01,-19.9 32.09,-20.9 30.72,-0.9 158.03,17.9 20.16,-30.8 -39.42,-14 -40.33,-10 -41.26,-18.9 -0.91,-9 -22,-20.9 -20.17,-27.9 1.84,-6.9 31.17,-22.8 31.17,-22.8 0,0 -5.5,-13 12.84,-15.9 18.33,-3 31.16,2.9 46.76,-3 15.57,-6 49.5,-26.9 62.33,-26.9 12.83,0 20.17,0 20.17,0 0,0 0.91,-21.9 -7.34,-31.8 -8.26,-10 -23.83,-9 -32.08,-18.9 -8.25,-9.9 -16.51,-7 -23.84,-19.9 -7.34,-12.9 -44.01,-21.9 -52.26,-25.8 -8.25,-4 -6.4,19.9 -10.99,-6 -4.59,-25.9 -37.59,-20.9 -44.95,-44.8 -7.31,-23.8 -6.4,-35.8 0.93,-39.7 7.34,-4 6.43,-10 23.85,-14.9 17.42,-5 36.66,-3 52.25,-2 15.58,1 27.5,7.9 41.26,5.9 33.28,-4.8 86.8,32 100.67,27.7 6.41,-2 -6.81,-51 -40.21,-71.4 -33.38,-20.4 -33.91,-27.9 -34.37,-34.8 -0.45,-7 4.58,-3 -6.88,-16.9 -11.45,-14 -22.94,-34.4 -40.81,-41.3 -17.87,-7 -18.8,-6.5 -23.37,-14.9 -4.59,-8.5 3.67,-3.5 -11.01,-14 -14.67,-10.4 -22,2 -35.74,-8.4 -13.75,-10.4 -32.55,-15.5 -28.87,-28.4 3.66,-12.9 19.25,-9.9 25.67,-14.9 6.42,-5 22.9,-10.9 50.41,-9.9 27.51,0.9 31.17,12.9 51.34,9.9 20.18,-3 15.57,0 36.67,-7 21.08,-6.9 32.08,-27.3 42.16,-26.8 10.09,0.5 9.64,4.4 13.76,-2.5 4.12,-7 5.96,-12.9 2.75,-19.9 -3.21,-6.9 -13.75,-14.4 -15.12,-22.4 -1.39,-7.9 14.2,2.5 -1.39,-10.9 -15.58,-13.4 -10.09,-2 -17.87,-13.4 -7.79,-11.5 -0.91,-31.8 12.45,-27.9 15.51,-4 54.76,-14.8 70.26,-17.8 15.5,-3 20.97,16.8 34.65,7.9 13.69,-8.9 -41.96,-63.4 -84.83,-67.3 -42.89,-4 -52.01,0 -65.71,-21.8 -13.68,-21.8 -30.09,-20.8 -57.46,-44.5 -27.37,-23.8 -72.09,-7.9 -41.06,-45.6 31.01,-37.6 27.36,-35.6 59.3,-44.5 31.94,-8.9 48.36,-40.6 92.14,-28.7 43.8,11.9 67.09,-30.7 75.29,-29.7 5.96,0.7 18.01,5 31.09,9.8 -5.64,5.9 -15.26,6.6 -16.9,17.3 -2.09,13.6 -1.25,1 -4.98,3.1 -3.75,2.1 -20.38,6.8 -23.71,13.6 -3.32,6.8 -7.07,5.2 -10.82,10.5 -3.74,5.2 -10.8,4.7 -14.54,9.9 -3.75,5.2 -3.32,16.7 -3.32,16.7 0,0 3.32,0 9.14,0 5.82,0 21.21,11 28.27,14.2 7.08,3.1 12.88,0 21.2,1.5 8.32,1.6 5.82,8.4 5.82,8.4 0,0 13.31,8.4 14.14,12 0.84,3.7 -8.73,10 -9.14,14.7 -0.42,4.7 -0.84,2.6 -18.71,9.9 -62.53,25.6 -4.8,15.7 9.14,16.2 14.55,0.5 7.49,4.7 14.55,11 7.07,6.3 4.57,3.1 9.56,4.7 4.99,1.6 -0.42,24.6 -5.4,26.7 -4.99,2.1 -7.06,6.2 -9.14,13 -2.09,6.8 -0.84,7.9 -3.33,12.1 -2.49,4.1 -14.14,6.8 -14.14,6.8 0,0 5.41,25.6 15.8,21.4 10.39,-4.2 8.34,29.8 12.5,30.3 4.14,0.5 24.49,-16.2 27.82,-13.6 3.34,2.7 -2.49,6.8 -7.48,18.3 -4.99,11.5 4.99,8.4 8.74,12.6 3.73,4.2 0,0.5 -1.68,8.3 -1.66,7.9 -0.42,2.2 -6.65,15.7 -6.22,13.6 5.41,12.1 5.41,12.1 0,0 10.38,-2.6 10.38,8.3 0,11 -3.74,11.6 -6.65,15.7 -2.91,4.2 -25.54,5.8 -25.95,9.4 -0.41,3.7 6.83,6.3 8.08,12.1 1.24,5.7 12.47,-1.6 17.87,1.5 5.41,3.2 5.82,3.7 15.38,5.3 9.56,1.5 -2.92,9.9 -2.08,18.3 0.83,8.3 0.83,6.2 5.82,14.6 4.99,8.4 0,4.2 -6.66,15.7 -6.65,11.5 -14.12,23 -14.12,31.4 0,8.3 4.98,-5.3 16.62,12.5 l 18.29,1.1 c 0,0 8.31,11.5 14.97,29.2 6.65,17.8 5.83,13.6 9.14,36.6 3.32,23 12.48,15.7 4.16,31.4 -8.31,15.7 -15.79,15.7 -8.31,24.1 7.47,8.3 23.28,-11.5 24.11,25.1 0.29,12.8 1.82,21.2 3.67,26.6 0.05,15.3 7.96,15.3 8,0 1.86,-5.4 3.11,-1.9 3.68,-26.6 1.58,-69.9 35.42,-12.1 15.79,-49.2 -8.31,-15.7 0.84,-8.4 4.16,-31.4 3.33,-23 2.51,-18.8 9.14,-36.6 6.67,-17.7 14.98,-29.2 14.98,-29.2 l 18.29,-1.1 c 11.64,-17.8 16.62,-4.2 16.62,-12.5 0,-8.4 -7.48,-19.9 -14.13,-31.4 -6.66,-11.5 -11.64,-7.3 -6.66,-15.7 5,-8.4 5,-6.3 5.83,-14.6 0.83,-8.4 -11.65,-16.8 -2.08,-18.3 9.55,-1.6 9.98,-2.1 15.38,-5.3 5.4,-3.1 25.3,12.5 26.56,6.8 1.25,-5.8 -7.43,-16.7 -7.86,-20.4 -0.41,-3.6 -15.79,-5.2 -18.7,-9.4 -2.91,-4.1 -6.65,-4.7 -6.65,-15.7 0,-10.9 10.37,-8.3 10.37,-8.3 0,0 11.65,1.5 5.4,-12.1 -6.22,-13.5 -4.97,-7.8 -6.63,-15.7 -1.68,-7.8 -5.41,-4.1 -1.68,-8.3 3.76,-4.2 13.74,-1.1 8.74,-12.6 -4.98,-11.5 -10.81,-15.6 -7.49,-18.3 3.33,-2.6 18.72,2.7 22.87,2.1 4.15,-0.5 7.06,-23 17.45,-18.8 10.4,4.2 37.32,-7.9 37.32,-7.9 0,0 -33.16,-16.2 -35.65,-20.3 -2.49,-4.2 -1.24,-5.3 -3.33,-12.1 -2.08,-6.8 -4.16,-10.9 -9.14,-13 -4.99,-2.1 -10.4,-25.1 -5.42,-26.7 5,-1.6 2.5,1.6 9.57,-4.7 7.08,-6.3 0,-10.5 14.55,-11 14.55,-0.5 13.72,0 17.88,-1 4.15,-1.1 9.14,-7.9 -8.73,-15.2 -17.87,-7.3 -18.29,-5.2 -18.71,-9.9 -0.42,-4.7 -9.97,-11 -9.14,-14.7 0.82,-3.6 14.13,-12 14.13,-12 0,0 -2.5,-6.8 5.81,-8.4 8.33,-1.5 14.15,1.6 21.21,-1.5 7.07,-3.2 22.45,-14.2 28.28,-14.2 20.57,0 46.71,30.3 10.88,-19.8 -3.74,-5.2 -15.87,-1.6 -19.61,-6.8 -3.73,-5.3 -7.49,-3.7 -10.81,-10.5 -3.34,-6.8 -19.97,-11.5 -23.71,-13.6 -3.75,-2.1 -2.9,10.5 -4.98,-3.1 -2.08,-13.6 -17.05,-11 -20.38,-23.6 -3.33,-12.5 -2.91,-18.8 0.41,-20.9 3.34,-2.1 2.92,-5.2 10.81,-7.8 7.9,-2.6 16.63,-1.6 23.71,-1.1 7.06,0.6 12.47,4.2 18.71,3.2 6.23,-1.1 12.06,1 16.62,-5.8 4.58,-6.8 11.23,1.6 14.15,0.5 2.91,-1 6.42,-4.7 -3.34,-17.7 -9.78,-13.1 -15.38,-14.7 -15.6,-18.3 -0.19,-3.7 2.08,-1.6 -3.11,-8.9 -5.2,-7.3 -10.41,-18.1 -18.51,-21.7 -8.11,-3.7 -8.53,-3.4 -10.6,-7.9 -2.09,-4.4 1.65,-1.8 -5,-7.3 -6.65,-5.5 -9.98,1.1 -16.22,-4.4 -6.23,-5.5 -14.74,-8.2 -13.07,-15 1.66,-6.7 8.72,-5.2 11.63,-7.8 2.92,-2.6 10.39,-5.7 22.86,-5.2 12.47,0.5 14.14,6.8 23.28,5.2 9.16,-1.6 7.06,0 16.63,-3.7 9.57,-3.6 14.55,-14.3 19.12,-14.1 4.58,0.3 4.39,2.4 6.25,-1.3 1.87,-3.6 2.7,-6.8 1.24,-10.4 -1.45,-3.7 -6.24,-7.6 -6.85,-11.8 -0.64,-4.2 6.44,1.3 -0.64,-5.8 -7.06,-7 -4.57,-1 -8.09,-7 -3.54,-6 -0.29,-25.1 6.46,-25.1 6.75,0 16.15,-3.1 23.18,-4.7 7.03,-1.5 15.72,6.3 21.93,1.6 6.21,-4.7 -17.37,-25 -36.83,-27.1 -19.45,-2.1 -23.58,0 -29.78,-11.4 -6.21,-11.5 -13.67,-11 -26.09,-23.4 -12.41,-12.5 -32.67,-4.2 -18.61,-24 14.07,-19.8 12.41,-18.7 26.9,-23.4 14.49,-4.7 21.93,-21.3 41.79,-15.1 19.86,6.2 30.42,-16.1 34.14,-15.6 3.72,0.5 3.93,4.9 10.76,0.2 6.83,-4.6 8.48,-3.9 13.65,-7.5 5.17,-3.6 8.89,-14.8 -8.89,-29.4 -17.78,-14.6 -25.24,-9.9 -29.78,-21.9 -4.56,-11.9 -36.83,-14 -43.46,-22.3 -6.6,-8.4 5.75,-0.1 -11.9,-16.6 49.16,-12.4 98.23,-18.3 145.01,-15 181.41,12.8 290.2,-19.3 422.51,-38.5 132.31,-19.2 207.01,-25.6 283.84,-74.7 3.41,-2.1 6.94,-4.3 10.57,-6.4 6.53,12 -13.18,6.9 -25.83,17.9 -14.39,12.5 -23.03,12 -30.23,23.4 -7.19,11.5 -11.98,9.4 -34.54,11.5 -22.54,2 -51.8,30.7 -44.62,35.4 7.21,4.6 10.08,-5.8 18.24,-4.2 8.15,1.6 28.78,7.3 36.94,9.4 7.02,-2.1 10.64,8.6 6.55,14.6 -4.1,6 -1.2,0 -9.41,7.1 -8.19,7.1 0,1.6 -0.71,5.7 -0.74,4.2 -6.28,8.1 -7.96,11.8 -1.69,3.7 -0.73,6.8 1.44,10.4 2.17,3.7 1.93,1.6 7.23,1.4 5.31,-0.3 11.08,10.4 22.18,14.1 11.09,3.7 8.68,2.1 19.28,3.7 10.62,1.5 12.54,-4.8 26.99,-5.3 14.48,-0.5 23.14,2.6 26.52,5.3 3.37,2.6 11.56,1 13.48,7.8 1.95,6.8 -7.94,9.4 -15.17,14.9 -7.23,5.5 -11.08,-1 -18.79,4.5 -7.72,5.4 -3.38,2.8 -5.79,7.3 -2.41,4.4 -2.89,4.2 -12.3,7.8 -9.4,3.7 -15.42,14.4 -21.45,21.7 -6.03,7.3 -3.38,5.2 -3.61,8.9 -0.25,3.7 -0.53,7.6 -18.09,18.3 -17.55,10.7 -24.51,36.5 -21.13,37.6 7.28,2.2 35.44,-17.1 52.94,-14.6 7.23,1.1 13.49,-2.6 21.68,-3.1 8.2,-0.5 18.32,-1.6 27.49,1 9.16,2.7 8.68,5.8 12.53,7.9 3.86,2.1 4.34,8.3 0.48,20.9 -3.85,12.5 -21.22,9.9 -23.62,23.5 -2.41,13.6 -1.44,1.1 -5.79,3.2 -4.34,2.1 -23.62,6.8 -27.47,13.6 -3.86,6.8 -8.19,5.2 -12.53,10.4 -4.35,5.2 -12.54,4.7 -16.89,10 -4.32,5.2 -3.85,16.7 -3.85,16.7 0,0 3.85,0 10.61,0 6.75,0 24.58,11 32.79,14.1 8.19,3.1 14.94,0 24.57,1.6 9.63,1.5 6.75,8.3 6.75,8.3 0,0 15.43,8.4 16.4,12.1 0.96,3.6 -10.13,9.9 -10.61,14.6 -0.49,4.7 -0.96,2.6 -21.69,9.9 -72.49,25.6 -5.57,15.8 10.6,16.3 16.87,0.5 8.67,4.7 16.87,10.9 8.19,6.3 5.3,3.2 11.09,4.7 5.79,1.6 -0.49,24.6 -6.26,26.7 -5.79,2.1 -8.2,6.3 -10.61,13.1 -2.42,6.8 -0.96,7.8 -3.86,12 -2.89,4.2 -16.39,6.8 -16.39,6.8 0,0 6.27,25.6 18.31,21.4 12.05,-4.1 9.67,29.8 14.48,30.3 4.84,0.6 28.42,-16.1 32.28,-13.5 3.87,2.6 -2.9,6.8 -8.67,18.3 -5.79,11.5 5.77,8.4 10.11,12.5 4.34,4.2 0,0.6 -1.93,8.4 -1.93,7.8 -0.48,2.1 -7.7,15.7 -7.23,13.6 6.26,12 6.26,12 0,0 12.05,-2.6 12.05,8.4 0,11 -4.35,11.5 -7.73,15.7 -3.37,4.2 -29.61,5.7 -30.09,9.4 -0.46,3.6 7.93,6.3 9.37,12 1.44,5.8 14.46,-1.6 20.72,1.6 6.27,3.1 6.76,3.6 17.84,5.2 11.1,1.6 -3.37,9.9 -2.42,18.3 0.98,8.4 0.98,6.3 6.76,14.7 5.78,8.3 0,4.1 -7.71,15.6 -7.72,11.5 -16.39,23 -16.39,31.4 0,8.4 5.78,-5.2 19.28,12.5 l 21.21,1.1 c 0,0 9.63,11.5 17.34,29.3 7.72,17.8 6.76,13.6 10.62,36.6 3.85,23 14.46,15.7 4.82,31.4 -9.65,15.6 -18.32,15.6 -9.65,24 8.68,8.4 26.99,-11.5 27.96,25.1 0.33,12.9 2.11,21.2 4.25,26.6 0.07,15.3 9.24,15.3 9.29,0 2.15,-5.4 3.61,-1.9 4.26,-26.6 1.83,-69.9 41.08,-12.1 18.31,-49.1 -9.64,-15.7 0.96,-8.4 4.82,-31.4 3.86,-23 2.9,-18.8 10.61,-36.6 7.71,-17.8 17.35,-29.3 17.35,-29.3 l 21.21,-1.1 c 13.49,-17.7 19.28,-4.1 19.28,-12.5 0,-8.4 -8.68,-19.9 -16.38,-31.4 -7.73,-11.5 -13.5,-7.3 -7.73,-15.6 5.79,-8.4 5.79,-6.3 6.76,-14.7 0.97,-8.4 -13.49,-16.7 -2.41,-18.3 11.08,-1.6 11.56,-2.1 17.82,-5.2 6.27,-3.2 29.36,12.5 30.81,6.7 1.45,-5.7 -8.63,-16.7 -9.11,-20.3 -0.48,-3.7 -18.32,-5.2 -21.7,-9.4 -3.36,-4.2 -7.69,-4.7 -7.69,-15.7 0,-11 12.02,-8.4 12.02,-8.4 0,0 13.5,1.6 6.27,-12 -7.23,-13.6 -5.77,-7.9 -7.72,-15.7 -1.92,-7.8 -6.26,-4.2 -1.92,-8.4 4.33,-4.1 15.91,-1 10.13,-12.5 -5.8,-11.5 -12.54,-15.7 -8.69,-18.3 3.86,-2.6 21.69,2.6 26.52,2.1 4.81,-0.5 8.19,-23 20.24,-18.9 12.05,4.2 43.26,-7.8 43.26,-7.8 0,0 -38.44,-16.2 -41.33,-20.4 -2.9,-4.2 -1.44,-5.2 -3.85,-12 -2.41,-6.8 -4.84,-11 -10.61,-13.1 -5.79,-2.1 -12.06,-25.1 -6.27,-26.7 5.78,-1.5 2.89,1.6 11.09,-4.7 8.18,-6.2 0,-10.4 16.87,-10.9 16.88,-0.6 15.91,0 20.72,-1.1 4.84,-1 10.61,-7.8 -10.12,-15.2 -20.73,-7.3 -21.19,-5.2 -21.68,-9.9 -0.5,-4.7 -11.57,-11 -10.61,-14.6 0.96,-3.7 16.38,-12.1 16.38,-12.1 0,0 -2.89,-6.8 6.75,-8.3 9.65,-1.6 16.39,1.5 24.59,-1.6 8.19,-3.1 26.03,-14.1 32.77,-14.1 23.86,0 54.18,30.2 12.63,-19.9 -4.34,-5.2 -18.4,-1.6 -22.75,-6.8 -4.33,-5.2 -8.68,-3.6 -12.54,-10.4 -3.85,-6.8 -23.13,-11.5 -27.47,-13.6 -4.32,-2.1 -3.38,10.4 -5.78,-3.2 -2.42,-13.6 -19.77,-11 -23.63,-23.5 -3.86,-12.6 -3.37,-18.8 0.48,-20.9 3.87,-2.1 3.38,-5.2 12.54,-7.9 9.16,-2.6 19.28,-1.5 27.48,-1 8.19,0.5 14.46,4.2 21.69,3.1 7.21,-1 13.97,1.1 19.27,-5.7 5.31,-6.8 13.02,1.5 16.4,0.5 3.38,-1 7.45,-4.7 -3.88,-17.8 -11.32,-13.1 -17.83,-14.6 -18.06,-18.3 -0.26,-3.7 2.39,-1.6 -3.62,-8.9 -6.02,-7.3 -12.06,-18 -21.46,-21.7 -9.4,-3.6 -9.88,-3.4 -12.3,-7.8 -2.4,-4.5 1.93,-1.9 -5.79,-7.3 -7.7,-5.5 -11.57,1 -18.8,-4.5 -7.21,-5.5 -17.1,-8.1 -15.17,-14.9 1.92,-6.8 10.12,-5.2 13.49,-7.8 3.38,-2.7 12.06,-5.8 26.51,-5.3 14.47,0.5 16.4,6.8 27,5.3 10.61,-1.6 8.19,0 19.29,-3.7 11.08,-3.7 16.87,-14.4 22.17,-14.1 5.3,0.2 5.06,2.3 7.24,-1.4 2.16,-3.6 3.13,-6.7 1.43,-10.4 -1.68,-3.7 -7.22,-7.6 -7.94,-11.8 -0.73,-4.1 7.47,1.4 -0.73,-5.7 -8.2,-7.1 -5.31,-1.1 -9.39,-7.1 -4.1,-6 -0.33,-25 7.5,-25 7.81,-0.1 18.71,-3.2 26.87,-4.7 8.15,-1.6 18.22,6.2 25.42,1.5 7.2,-4.6 -20.15,-25 -42.7,-27 -22.55,-2.1 -27.34,0 -34.54,-11.5 -7.2,-11.4 -15.83,-10.9 -30.22,-23.4 -14.4,-12.5 -37.91,-4.2 -21.6,-23.9 16.31,-19.8 14.4,-18.8 31.19,-23.5 16.79,-4.6 25.43,-21.3 48.46,-15.1 23.02,6.3 35.27,-16.1 39.58,-15.6 4.32,0.5 4.56,5 12.47,0.3 7.93,-4.7 9.84,-3.9 15.84,-7.6 6,-3.6 10.32,-14.8 -10.31,-29.4 -20.63,-14.5 -29.27,-9.9 -34.55,-21.8 -2.74,-6.2 -14.16,-9.8 -25.58,-12.9 l 13.98,-5 c 128.03,-44.8 96.02,-106.7 185.65,-100.3 24,1.7 50,-1.4 77.44,-6.7 h 0.01 l 0.34,-0.1 0.34,-0.1 h 0.34 l 0.34,-0.1 0.34,-0.1 h 0.34 l 0.69,-0.2 h 0.34 l 0.33,-0.1 0.34,-0.1 h 0.35 0.06 l 0.29,-0.1 0.33,-0.1 h 0.35 l 0.33,-0.1 0.34,-0.1 0.69,-0.1 0.34,-0.1 0.68,-0.1 0.34,-0.1 0.35,-0.1 h 0.35 l 0.34,-0.1 h 0.1 l 0.24,-0.1 0.35,-0.1 h 0.35 l 0.34,-0.1 0.34,-0.1 h 0.34 l 0.34,-0.1 0.34,-0.1 0.37,-0.1 h 0.33 l 0.35,-0.1 0.34,-0.1 h 0.34 l 0.34,-0.1 0.17,-0.1 h 0.19 l 0.35,-0.1 h 0.34 l 0.35,-0.1 0.34,-0.1 0.34,-0.1 h 0.36 l 0.34,-0.1 0.35,-0.1 0.35,-0.1 h 0.34 l 0.35,-0.1 0.35,-0.1 0.34,-0.1 h 0.21 0.14 l 0.35,-0.1 0.34,-0.1 0.35,-0.1 h 0.35 l 0.34,-0.1 0.35,-0.1 0.35,-0.1 h 0.35 l 0.35,-0.1 c -5.19,4.8 -10.03,9 -14.57,12.7 -18.49,14.9 -2.55,1.4 -16.26,12.5 -13.71,11 -4.14,5.5 -9.25,11 -5.09,5.6 -29.96,6.9 -33.48,14.9 -3.52,8 -9.26,4.8 -22.97,14.5 -13.71,9.7 -21.04,31 -17.05,33.4 2.24,1.4 23.36,-8.3 29.01,-9 2.87,-0.3 11.01,14.6 26.32,10.4 15.31,-4.2 21.05,6.9 32.21,10 11.16,3.1 9.89,2.5 20.73,15.6 10.84,13.1 -4.78,7.6 -14.35,15.9 -9.56,8.3 -15.31,8 -20.09,15.6 -4.79,7.6 -7.97,6.2 -22.96,7.6 -14.99,1.4 -34.44,20.4 -29.66,23.5 4.79,3.1 6.7,-3.8 12.12,-2.7 5.42,1 19.13,4.8 24.55,6.2 4.68,-1.4 7.07,5.7 4.35,9.7 -2.72,4 -0.79,0 -6.25,4.7 -5.44,4.7 0,1.1 -0.47,3.8 -0.49,2.8 -4.17,5.4 -5.29,7.9 -1.13,2.4 -0.49,4.5 0.95,6.9 1.45,2.4 1.29,1.1 4.81,0.9 3.52,-0.2 7.37,6.9 14.74,9.4 7.39,2.4 5.77,1.4 12.82,2.4 7.05,1.1 8.34,-3.1 17.95,-3.5 9.61,-0.3 15.38,1.8 17.62,3.5 2.25,1.7 7.7,0.7 8.97,5.2 1.29,4.5 -5.29,6.3 -10.09,9.9 -4.81,3.7 -7.37,-0.7 -12.49,3 -5.13,3.6 -2.25,1.9 -3.84,4.8 -1.61,3 -1.93,2.8 -8.18,5.3 -6.25,2.4 -10.26,9.5 -14.26,14.4 -4,4.9 -2.25,3.5 -2.41,5.9 -0.16,2.4 -0.33,5 -12.01,12.2 -11.67,7.1 -16.3,24.2 -14.07,24.9 4.86,1.5 23.58,-11.3 35.21,-9.6 4.8,0.7 8.97,-1.8 14.41,-2.1 5.45,-0.4 12.18,-1.1 18.26,0.7 6.1,1.7 5.78,3.8 8.34,5.2 2.57,1.4 2.88,5.6 0.33,13.9 -2.57,8.3 -14.12,6.6 -15.71,15.6 -1.6,9.1 -0.96,0.7 -3.84,2.1 -2.9,1.4 -15.71,4.5 -18.28,9.1 -2.55,4.5 -5.44,3.4 -8.33,6.9 -2.88,3.5 -8.32,3.1 -11.22,6.6 -2.88,3.5 -2.56,11.1 -2.56,11.1 0,0 2.56,0 7.05,0 4.49,0 16.35,7.3 21.79,9.4 5.45,2.1 9.94,0 16.35,1.1 6.41,1 4.49,5.5 4.49,5.5 0,0 10.24,5.6 10.89,8 0.64,2.5 -6.73,6.6 -7.05,9.8 -0.33,3.1 -0.63,1.7 -14.42,6.6 -48.19,17 -3.7,10.4 7.04,10.7 11.22,0.4 5.77,3.2 11.22,7.3 5.46,4.2 3.53,2.1 7.38,3.2 3.84,1 -0.33,16.3 -4.17,17.7 -3.85,1.4 -5.46,4.2 -7.05,8.7 -1.61,4.5 -0.63,5.2 -2.56,8 -1.92,2.8 -10.9,4.5 -10.9,4.5 0,0 4.17,17 12.17,14.3 8.01,-2.8 6.43,19.7 9.63,20.1 3.21,0.3 18.9,-10.7 21.46,-9 2.56,1.7 -1.93,4.5 -5.78,12.1 -3.83,7.7 3.85,5.6 6.73,8.4 2.9,2.8 0,0.3 -1.27,5.6 -1.3,5.2 -0.33,1.3 -5.13,10.4 -4.82,9 4.17,8 4.17,8 0,0 7.99,-1.8 7.99,5.5 0,7.3 -2.89,7.7 -5.13,10.4 -2.23,2.8 -19.67,3.9 -19.98,6.3 -0.34,2.4 5.25,4.2 6.21,8 0.97,3.8 9.62,-1 13.77,1.1 4.19,2 4.5,2.4 11.86,3.4 7.37,1.1 -2.24,6.6 -1.61,12.2 0.65,5.5 0.65,4.2 4.49,9.7 3.85,5.6 0,2.8 -5.12,10.5 -5.13,7.6 -10.89,15.3 -10.89,20.8 0,5.6 3.84,-3.5 12.81,8.4 l 14.1,0.6 c 0,0 6.42,7.7 11.53,19.5 5.14,11.8 4.5,9.1 7.06,24.3 2.55,15.4 9.6,10.5 3.19,20.9 -6.4,10.4 -12.16,10.4 -6.4,16 5.76,5.6 17.94,-7.7 18.58,16.7 0.24,8.5 1.4,14.1 2.82,17.6 0.07,10.2 6.14,10.2 6.19,0 1.42,-3.5 2.38,-1.2 2.82,-17.6 1.22,-46.5 27.31,-8.1 12.18,-32.7 -6.41,-10.4 0.64,-5.5 3.2,-20.9 2.56,-15.2 1.93,-12.5 7.05,-24.3 5.13,-11.8 11.55,-19.5 11.55,-19.5 l 14.1,-0.6 c 8.96,-11.9 12.81,-2.8 12.81,-8.4 0,-5.5 -5.76,-13.2 -10.9,-20.8 -5.12,-7.7 -8.96,-4.9 -5.12,-10.5 3.84,-5.5 3.84,-4.2 4.48,-9.7 0.64,-5.6 -8.98,-11.1 -1.6,-12.2 7.37,-1 7.68,-1.4 11.85,-3.4 4.17,-2.1 19.5,8.3 20.47,4.4 0.97,-3.8 -5.72,-11.1 -6.04,-13.5 -0.33,-2.4 -12.18,-3.5 -14.43,-6.3 -2.24,-2.7 -5.13,-3.1 -5.13,-10.4 0,-7.3 8,-5.5 8,-5.5 0,0 8.98,1 4.17,-8 -4.8,-9.1 -3.83,-5.2 -5.12,-10.4 -1.29,-5.3 -4.17,-2.8 -1.29,-5.6 2.88,-2.8 10.58,-0.7 6.74,-8.4 -3.86,-7.6 -8.33,-10.4 -5.77,-12.1 2.56,-1.7 14.42,1.7 17.62,1.4 3.2,-0.4 5.45,-15.3 13.46,-12.5 8,2.7 28.75,-5.3 28.75,-5.3 0,0 -25.56,-10.7 -27.47,-13.5 -1.94,-2.8 -0.97,-3.5 -2.57,-8 -1.6,-4.5 -3.2,-7.3 -7.04,-8.7 -3.86,-1.4 -8.03,-16.7 -4.17,-17.7 3.85,-1.1 1.92,1 7.36,-3.2 5.45,-4.1 0,-6.9 11.22,-7.3 11.22,-0.3 10.58,0 13.78,-0.6 3.2,-0.7 7.05,-5.3 -6.74,-10.1 -13.78,-4.9 -14.09,-3.5 -14.41,-6.6 -0.32,-3.2 -7.69,-7.3 -7.04,-9.8 0.63,-2.4 10.89,-8 10.89,-8 0,0 -1.93,-4.5 4.49,-5.5 6.4,-1.1 10.88,1 16.33,-1.1 5.45,-2.1 17.31,-9.4 21.8,-9.4 8.55,0 18.37,5.9 21.24,6.1 0.21,2.7 -0.36,6.8 -1.84,12.3 -2.74,10.2 -15.01,8.1 -16.72,19.1 -1.71,11.1 -1.03,0.9 -4.09,2.6 -3.06,1.7 -16.73,5.5 -19.45,11 -2.73,5.6 -5.8,4.3 -8.86,8.5 -3.08,4.3 -8.88,3.8 -11.95,8.1 -3.07,4.2 -2.73,13.6 -2.73,13.6 0,0 2.73,0 7.5,0 4.77,0 17.41,8.9 23.2,11.5 5.8,2.5 10.57,0 17.39,1.2 6.84,1.3 4.78,6.8 4.78,6.8 0,0 10.93,6.8 11.6,9.8 0.69,3 -7.16,8.1 -7.5,11.9 -0.34,3.8 -0.68,2.1 -15.36,8.1 -51.29,20.7 -3.93,12.7 7.52,13.1 11.93,0.4 6.14,3.8 11.93,8.9 5.8,5.1 3.75,2.6 7.85,3.9 4.1,1.3 -0.35,19.9 -4.44,21.6 -4.09,1.7 -5.8,5.1 -7.5,10.6 -1.72,5.6 -0.68,6.4 -2.73,9.8 -2.04,3.4 -11.59,5.5 -11.59,5.5 0,0 4.43,20.8 12.96,17.5 8.52,-3.5 6.84,24.1 10.24,24.5 3.42,0.5 20.12,-13.1 22.84,-11 2.73,2.2 -2.04,5.6 -6.14,14.9 -4.08,9.4 4.1,6.8 7.17,10.2 3.06,3.4 0,0.4 -1.37,6.8 -1.37,6.4 -0.34,1.7 -5.46,12.7 -5.12,11.1 4.43,9.8 4.43,9.8 0,0 8.53,-2.1 8.53,6.8 0,8.9 -3.07,9.4 -5.46,12.7 -2.39,3.4 -20.96,4.7 -21.29,7.7 -0.34,3 5.6,5.1 6.62,9.8 1.03,4.6 10.24,-1.3 14.67,1.2 4.43,2.6 4.77,3 12.62,4.3 7.85,1.3 -2.4,8.1 -1.7,14.9 0.68,6.7 0.68,5 4.76,11.8 4.09,6.8 0,3.4 -5.46,12.8 -5.45,9.3 -11.6,18.7 -11.6,25.5 0,6.8 4.1,-4.3 13.65,10.2 l 15.01,0.8 c 0,0 6.83,9.4 12.29,23.8 5.46,14.4 4.78,11 7.5,29.7 2.72,18.7 10.24,12.8 3.41,25.5 -6.82,12.7 -12.96,12.7 -6.82,19.5 6.13,6.8 19.09,-9.3 19.78,20.4 0.24,10.5 1.5,17.2 3.01,21.6 0.03,12.4 6.52,12.4 6.59,0 1.51,-4.4 2.53,-1.5 2.99,-21.6 1.29,-56.7 29.07,-9.8 12.97,-39.9 -6.81,-12.7 0.69,-6.8 3.41,-25.5 2.72,-18.7 2.04,-15.3 7.5,-29.7 5.46,-14.4 12.29,-23.8 12.29,-23.8 l 15.01,-0.8 c 9.55,-14.5 13.64,-3.4 13.64,-10.2 0,-6.8 -6.14,-16.2 -11.59,-25.5 -5.46,-9.4 -9.55,-6 -5.46,-12.8 4.08,-6.8 4.08,-5.1 4.76,-11.8 0.7,-6.8 -9.55,-13.6 -1.7,-14.9 7.85,-1.3 8.18,-1.7 12.62,-4.3 4.44,-2.5 20.76,10.2 21.79,5.5 1.02,-4.6 -6.1,-13.5 -6.44,-16.5 -0.34,-3 -12.97,-4.3 -15.35,-7.7 -2.38,-3.3 -5.46,-3.8 -5.46,-12.7 0,-8.9 8.53,-6.8 8.53,-6.8 0,0 9.55,1.3 4.42,-9.8 -5.11,-11 -4.09,-6.3 -5.45,-12.7 -1.36,-6.4 -4.44,-3.4 -1.36,-6.8 3.06,-3.4 11.25,-0.8 7.16,-10.2 -4.1,-9.3 -8.86,-12.7 -6.15,-14.9 2.74,-2.1 15.36,2.2 18.77,1.7 3.41,-0.4 5.79,-18.7 14.32,-15.2 8.53,3.3 30.62,-6.5 30.62,-6.5 0,0 -27.2,-13.1 -29.26,-16.5 -2.05,-3.4 -1.01,-4.2 -2.73,-9.8 -1.7,-5.5 -3.41,-8.9 -7.5,-10.6 -4.09,-1.7 -8.53,-20.3 -4.42,-21.6 4.08,-1.3 2.04,1.2 7.84,-3.9 5.79,-5.1 0,-8.5 11.94,-8.9 11.93,-0.4 11.24,0 14.67,-0.8 3.4,-0.9 7.5,-6.4 -7.17,-12.3 -14.68,-6 -15,-4.3 -15.36,-8.1 -0.33,-3.8 -8.18,-8.9 -7.5,-11.9 0.68,-3 11.6,-9.8 11.6,-9.8 0,0 -2.04,-5.5 4.77,-6.8 6.83,-1.2 11.6,1.3 17.4,-1.2 5.8,-2.6 18.43,-11.5 23.21,-11.5 16.87,0 38.32,24.5 8.93,-16.1 -3.07,-4.3 -13.03,-1.3 -16.11,-5.6 -3.06,-4.2 -6.13,-2.9 -8.86,-8.5 -2.74,-5.5 -16.38,-9.3 -19.46,-11 -3.06,-1.7 -2.38,8.5 -4.08,-2.6 -1.72,-11 -13.99,-8.9 -16.72,-19.1 -2.73,-10.2 -2.39,-15.3 0.34,-17 2.73,-1.7 2.39,-4.2 8.87,-6.3 6.48,-2.1 13.64,-1.3 19.46,-0.9 5.78,0.4 10.22,3.4 15.34,2.6 5.11,-0.9 9.89,0.8 13.64,-4.7 3.75,-5.5 9.21,1.3 11.59,0.4 2.38,-0.8 5.29,-3.8 -2.72,-14.4 -8.02,-10.6 -12.63,-11.9 -12.8,-14.9 -0.17,-3 1.7,-1.3 -2.55,-7.2 -4.27,-6 -8.54,-14.7 -15.2,-17.6 -6.65,-3 -6.99,-2.8 -8.7,-6.4 -1.7,-3.6 1.37,-1.5 -4.08,-6 -5.46,-4.4 -8.2,0.9 -13.32,-3.6 -5.12,-4.4 -12.11,-6.6 -10.74,-12.1 1.37,-5.5 7.17,-4.2 9.56,-6.4 2.39,-2.1 8.53,-4.6 18.76,-4.2 10.23,0.4 11.59,5.5 19.11,4.2 7.5,-1.2 5.8,0 13.64,-2.9 7.85,-3 11.93,-11.7 15.69,-11.5 3.76,0.2 3.58,1.9 5.12,-1.1 1.53,-2.9 2.22,-5.5 1.03,-8.5 -1.2,-2.9 -5.12,-6.1 -5.64,-9.5 -0.51,-3.4 5.29,1.1 -0.51,-4.7 -5.81,-5.7 -3.76,-0.8 -6.65,-5.7 -2.9,-4.9 -0.23,-20.4 5.3,-20.4 5.55,0 13.25,-2.5 19.02,-3.8 5.78,-1.2 12.9,5.1 17.99,1.3 5.1,-3.8 -14.25,-20.3 -30.21,-22 -15.96,-1.7 -19.34,0 -24.45,-9.3 -5.09,-9.3 -11.2,-8.9 -21.38,-19 -10.19,-10.2 -26.83,-3.4 -15.28,-19.5 11.55,-16 10.17,-15.2 22.06,-19 11.89,-3.8 18,-17.3 34.31,-12.3 16.27,5.1 24.95,-13 27.99,-12.6 3.06,0.4 3.24,4 8.84,0.2 5.6,-3.8 6.95,-3.2 11.2,-6.2 4.25,-2.9 7.3,-12 -7.29,-23.8 -14.6,-11.9 -20.72,-8.1 -24.45,-17.8 -3.74,-9.7 -30.21,-11.4 -35.66,-18.2 -5.42,-6.7 4.77,0 -9.83,-13.5 -14.6,-13.5 2.37,3 -17.32,-15.2 -1.82,-1.7 -3.68,-3.5 -5.57,-5.3 l 0.72,-0.2 0.73,-0.1 0.72,-0.2 0.74,-0.2 0.72,-0.1 v -0.1 l 0.73,-0.1 0.73,-0.2 0.75,-0.2 0.74,-0.2 0.73,-0.2 0.72,-0.1 0.74,-0.2 0.73,-0.2 2.96,-0.8 0.74,-0.2 0.08,-0.1 0.66,-0.2 2.97,-0.8 0.74,-0.3 0.5,-0.1 0.25,-0.1 0.74,-0.2 3.75,-1.3 h 0.17 l 0.58,-0.2 3.77,-1.3 0.57,-0.2 0.17,-0.1 h 0.05 l 3.75,-1.4 0.75,-0.3 0.26,-0.1 0.5,-0.2 3.82,-1.6 0.68,-0.2 0.07,-0.1 4.64,-2 0.32,-0.1 0.44,-0.2 4.66,-2.1 c 108.84,-51.3 207,-53.4 247.55,-38.5 40.54,15 59.75,-8.5 147.25,-51.2 87.5,-42.7 3886.11,-2930.3 3783.71,-4671.8 -1.1,-18.9 -5.1,-38.3 -8.7,-57.7 v 0"
         style="fill:#43654a;fill-opacity:1;fill-rule:evenodd;stroke:none;stroke-width:7.50232;stroke-dasharray:none"
         transform="matrix(0.13333333,0,0,-0.13333333,0,2666.6667)" />
      <path
         id="path16"
         d="m 9215.34,9544.3 c 1.15,0.2 2.37,0.3 3.7,0.4 17.49,1 42.72,14.1 46.12,20.5 3.38,6.4 4.03,17.9 -14.14,16.5 -18.18,-1.3 -18.52,10.1 -20.84,15.5 0,0 -15.19,3.1 -34.34,7.9 7.36,-19.7 13.84,-40 19.5,-60.8 z m 3526.16,-159.1 c 4.8,-15 9.1,-30.3 13,-45.5 -0.7,17.4 -1.8,34.2 -3.2,50.3 -4.2,-2.1 -7.4,-3.1 -9.8,-4.8 z m -54.2,118.4 c 12.5,-19.1 23.4,-39.8 32.9,-61.6 14.2,4 22.8,-8.5 27.1,-12.3 -4.7,38.9 -10.7,72 -15.8,96.5 -2.3,-0.9 -4.6,-1.5 -6.8,-1.8 -16.8,-1.7 -20.4,0 -25.7,-9.7 -3.3,-5.9 -6.9,-8 -11.7,-11.1 z m 5.3,-53.7 c -3.9,21.1 -7.8,38.1 -10.6,49.9 -1.7,-1.4 -3.6,-3 -5.6,-4.9 -10.7,-10.6 -28.3,-3.6 -16.1,-20.4 12.2,-16.7 10.7,-15.9 23.3,-19.8 3.3,-1.1 6.2,-2.9 9,-4.8 z m -3.4,-103.8 c 2.4,-4.8 4.8,-9.6 7.3,-14.4 h 11.9 c -0.9,11.1 -1.9,21.7 -3.1,32.1 -2.6,-1.2 -4.8,-2.4 -6,-3.9 -5.7,-7 4.9,-0.1 -10.1,-13.8 z m -46.7,273.2 c 1.1,5.4 2.1,10.2 2.9,14.4 -4.4,-3 -8.5,-5.4 -7.4,-9.8 0.7,-2.8 2.6,-3.9 4.5,-4.6 z m -212.4,13.8 c 1,-4.5 1.9,-9 2.8,-13.5 1.7,0.6 3.2,1.8 3.8,4.3 1,4.2 -2.5,6.5 -6.6,9.2 z m -64.9,-110.1 c 3,-26.5 4.4,-53.6 4.7,-80.8 5,2 9.1,5.6 13.7,8.6 3.5,16.8 6.7,33.1 9.5,48.8 -7.7,6 -12.9,7.1 -17.3,15.1 -3.1,5.7 -5.7,7.5 -10.6,8.3 z m -8.4,53.3 c 1.6,-7.7 3,-15.5 4.3,-23.4 3,4.9 3.9,14.7 1.7,18.4 -2.9,4.8 -1.2,0.6 -6,5 z m 1179,-176.7 c -3.9,-21.9 -8.4,-43.6 -13.3,-64.8 h 6.9 c 12.1,28.2 25.4,56.7 40,84.7 -2.5,-2.5 -5.1,-4.8 -7.9,-6.8 -12.1,-8.5 -20.1,-10.5 -25.7,-13.1 z m -96,-65 h 1 l 0.6,1.2 z m -393.2,20.3 c 1.5,-7.2 3,-14.5 4.4,-21.7 h 13.5 l 1,7.3 c -10.7,8.4 2.9,-3.3 -14.3,10.7 z m 448,132.1 c -19.5,5.4 -44.1,10.1 -62.2,17 l -1.4,-9.4 c 8.3,-9.9 9.9,-10 23.3,-13.8 12.7,-3.5 20.7,-13.8 33.7,-16.2 2.3,7.6 4.5,15.1 6.6,22.4 z m 1171.3,55 c 24.5,-62.1 36.6,-133.1 41.1,-204.4 l 20.3,0.1 c 7.3,26.7 15.7,53.2 25.4,79 -11.3,55.6 -24.4,106 -37,148.7 l -0.3,-0.2 c -21.6,-13.6 -37.4,-19 -49.5,-23.2 z m -79.9,-45.9 c 19.4,-48.7 31.2,-103 37.7,-158.6 h 25.9 c 10.2,91.5 9.6,165.4 8.5,201.7 -10,-3.9 -16.7,-8.1 -22,-18.8 -5.6,-11.4 -27,-18.4 -50.1,-24.3 z m -71.3,-34.5 c 15.9,-38.5 27,-80.6 34.2,-124.2 h 26.1 c 5.6,71.6 4.9,128 3.8,156.9 -24.7,-6.1 -49.7,-11.4 -58.4,-19.8 -11,-10.7 -2.2,-8 -5.7,-12.9 z m -55.9,-40.9 c 9.7,-26.5 17.3,-54.6 23.2,-83.5 l 26.3,0.1 c 2.8,54.1 2.1,96.2 1.2,119.1 -4,-3.4 -10.5,-8.5 -21,-16 -37.5,-27.1 -10.9,-6.7 -29.7,-19.7 z m -24.5,-17.4 c -1.8,-21.3 -3.2,-43.4 -4,-66.2 l 16.5,0.1 c 1.1,30.5 1.1,56.2 0.7,75.6 z m -82,-66.3 h 1.6 l 0.3,1.7 z m -668.5,7.4 -3.1,-9.1 h 13.3 z m -60.1,49 c -6,-18.6 -11.9,-38.1 -17.4,-58.3 h 17.9 c 7.2,13.7 14.9,27.1 22.8,40.3 -8,6.4 -15.8,12.4 -23.3,18 z m -156.7,477.1 c -1.1,-0.6 -2.1,-1.4 -2.9,-2.4 -4.4,-5.3 -8.8,-3.7 -12.7,-10.6 -3.9,-6.9 -23.3,-11.6 -27.7,-13.7 -4.4,-2.1 -3.4,10.5 -5.9,-3.2 -2.4,-13.7 -19.9,-11.1 -23.8,-23.8 -3.9,-12.7 -3.4,-19 0.4,-21.1 3.9,-2.1 3.5,-5.3 12.7,-7.9 9.3,-2.7 19.5,-1.6 27.8,-1.1 8.2,0.5 14.6,4.2 21.9,3.2 17.7,-2.6 46.1,16.9 53.5,14.7 3.4,-1.1 -3.6,-27.1 -21.4,-38 -17.7,-10.8 -18,-14.8 -18.2,-18.5 -0.3,-3.7 2.4,-1.5 -3.7,-8.9 -6.1,-7.4 -12.2,-18.3 -21.7,-22 -9.5,-3.7 -10,-3.4 -12.4,-7.9 -2.4,-4.5 2,-1.9 -5.8,-7.4 -7.8,-5.6 -11.7,1.1 -19,-4.5 -7.3,-5.5 -17.3,-8.2 -15.4,-15.1 2,-6.8 10.2,-5.3 13.7,-7.9 1.9,-1.5 5.7,-3.2 11.3,-4.3 10,3.7 21.6,5.7 34.9,4 2.2,0.5 4.6,0.8 7.8,0.3 10.8,-1.6 8.3,0 19.5,-3.7 0.9,-0.3 1.8,-0.7 2.7,-1.1 37.8,-0.4 57,25.6 89.9,33.8 38.6,9.6 34.1,7.5 71.6,48 37.4,40.6 -16.5,23.5 -49.6,49.1 -33,25.6 -52.8,24.6 -69.4,48 -13.9,19.9 -24,19.9 -58.1,22 z m 1665.5,-401.2 c 1.7,-9.8 3.1,-19.8 4.3,-29.9 6.2,1 10.3,2.8 12.4,4.4 3.4,2.7 11.7,1.1 13.6,8 2,6.8 -8,9.5 -15.3,15.1 -5.9,4.5 -9.6,1 -15,2.4 z m -80.7,-71.7 c 1,-11.1 2.3,-22.3 3.6,-33.7 7.8,0.4 11.4,19.3 7.3,25.3 -4.1,6 -1.2,0 -9.5,7.1 z m -0.8,7.8 0.5,-5 c 0.7,0.1 1.2,0.5 1,1.7 -0.2,1.1 -0.7,2.2 -1.5,3.3 z m -0.1,261.2 c -3.7,-38.4 -10,-128.7 -1.6,-240.1 0.8,-0.2 2,-0.5 3.9,-0.6 5.4,-0.3 11.2,10.6 22.4,14.2 11.2,3.7 8.8,2.2 19.5,3.7 4.5,0.7 7.4,0 10.3,-1.1 2.2,16.4 3.8,31 5.1,43.8 l -0.3,0.2 c -9.5,3.7 -15.6,14.5 -21.7,21.9 -6,7.4 -3.4,5.3 -3.6,9 -0.3,3.7 -6.8,5.3 -18.3,18.5 -11.4,13.2 -7.3,16.9 -3.9,17.9 3.4,1.1 11.2,-7.4 16.6,-0.5 5.3,6.9 12.2,4.8 19.5,5.8 7.3,1.1 13.6,-2.6 21.9,-3.2 8.3,-0.5 18.5,-1.5 27.7,1.1 9.3,2.7 8.8,5.8 12.7,7.9 3.9,2.1 4.4,8.5 0.5,21.2 -3.9,12.6 -21.4,10 -23.9,23.8 -2.4,13.7 -1.4,1 -5.8,3.1 -4.4,2.1 -23.9,6.9 -27.8,13.8 -3.9,6.8 -8.3,5.2 -12.7,10.5 -4.3,5.3 -18.6,1.6 -22.9,6.9 -8.9,10.7 -14.5,17.7 -17.6,22.2 z m 609.7,-327.7 C 15686.3,5995.2 15990.9,6646.7 12832,4822.9 9556.52,2931.7 10448.5,2928.8 7173.03,4820 4046.86,6625 4308.32,6002.5 4338.67,9230.3 l 42.99,0.6 c -20.78,94.4 -30.64,194.7 -13.1,282.4 0,0 20.06,-127.4 83.03,-281.3 l 7.39,0.1 c -5.05,75.4 -2.8,153.2 13.3,223.5 -2.74,7.3 -4.31,11.2 -4.31,11.2 1.84,-2 3.65,-4.1 5.46,-6.2 3.8,15.8 8.32,31.3 13.63,46.2 0,0 0.3,-25.5 4.18,-68 33.29,-43.3 60.76,-94.1 83.41,-147.4 -4.86,89.8 1.17,182 28.96,260.2 0,0 1.6,-135.8 45,-302.6 -3.97,86.9 2.52,175.6 29.39,251.2 0,0 1.38,-115.4 35.58,-264.1 l 5.72,0.1 c 45.27,215.8 22.82,407.3 22.82,407.3 51.1,-100.8 65.6,-232.2 65.42,-349.9 12.74,93.3 36.27,184.7 76.62,261.8 0,0 -1.1,-8.5 -2.57,-24 14.72,32.1 31.74,62.3 51.53,89.4 0,0 -49.61,-172.4 -44.66,-382 l 25.71,0.4 c 17.74,61.5 39.99,126.6 67.68,189.6 -10.45,55.7 -20.19,89.5 -20.19,89.5 12.89,-17.6 24.63,-36.6 35.3,-56.5 35.91,75.1 80,145.6 133.89,200.7 0,0 -54.77,-121.1 -93.18,-294.2 14.56,-41.2 25.99,-84.1 34.97,-126.6 l 6.52,0.1 c 3.55,94.7 18.92,192.2 56.89,271.6 0,0 -10.98,-117.1 8.1,-270.6 l 16.33,0.2 c 6.66,78.2 22.59,155.8 53.85,221.1 0,0 -8.66,-92.2 2.71,-220.2 l 16.44,0.3 c 8.37,63.7 23.69,125.5 49.34,179.1 0,0 -6.79,-72.6 -0.39,-178.4 l 17.04,0.3 c 8.9,54.6 23.37,107.1 45.55,153.4 0,0 -5.72,-61 -1.74,-152.7 l 15.35,0.2 c 2.43,203.5 -45.22,368.7 -45.22,368.7 72.72,-99.3 108.74,-241 126.46,-364.8 5.39,121.7 26.71,259.9 86.2,362.4 0,0 -28.99,-164.9 -6.38,-363.8 l 15.74,0.3 c -5.99,88 -17.66,145.3 -17.66,145.3 26.48,-42.9 46.22,-92.5 60.82,-144.6 l 17.8,0.3 c -5.04,104.7 -19.4,175.3 -19.4,175.3 31.5,-51.1 53.46,-111.6 68.6,-174.6 l 16.09,0.3 c -2.2,129.8 -20.93,221.8 -20.93,221.8 39.16,-63.5 63.59,-141.5 78.48,-220.9 l 14.86,0.2 c 3.48,158.6 -20.78,277.8 -20.78,277.8 48.32,-78.3 74.21,-178.8 87.43,-276.7 h 3.46 c 6.86,75.4 20.8,153.7 46.61,223.4 -15.5,31 -25.81,48.6 -25.81,48.6 9.77,-8.1 19.25,-16.7 28.5,-25.8 -7.18,41.8 -13,66 -13,66 9.92,-14.9 19.2,-30.5 27.92,-46.7 5.5,11.7 11.42,23.1 17.78,34.1 0,0 -3.51,-20.1 -7.14,-54.7 8.79,-17.7 16.92,-36.2 24.44,-55 36.88,-47.2 68.68,-100.8 95.69,-155 -32.88,92.1 -55.65,191.6 -48.99,281.7 0,0 42.91,-149.4 142.26,-312.1 l 18.94,0.3 c -34.22,110.4 -70.68,182.9 -70.68,182.9 51.64,-48.7 93.92,-113.3 128.21,-182 l 15.54,0.3 c -42.65,170.7 -108.82,294.2 -108.82,294.2 82.14,-73.6 142.83,-186.2 185.75,-293 l 5.87,0.1 c -24.84,114.7 -38.14,245.4 -9.57,354 0,0 16.07,-166.7 90.96,-352.8 l 23.01,0.4 c -1.89,131.6 -20.98,225.2 -20.98,225.2 39.72,-64.4 64.27,-143.7 79.1,-224.3 h 3.29 c 5.03,164.5 -20.45,289.8 -20.45,289.8 43.71,-70.9 69.07,-159.9 83.29,-248.7 10.9,56.7 27.03,112 50.46,161.2 -5.2,42.3 -10.3,67.4 -10.3,67.4 8.36,-13.6 16.04,-27.8 23.12,-42.5 1.32,2.4 2.65,4.8 4.02,7.2 0,0 -0.72,-4.2 -1.84,-11.9 31.06,-66.5 49.82,-143.5 60.74,-219.5 l 5.83,0.1 c 30.16,165.6 22.68,297 22.68,297 15.94,-36.7 27.03,-77 34.43,-118.9 8.21,30.2 18.56,59.1 31.53,85.9 0,0 -11.05,-112.9 6.11,-262.6 l 17.48,0.3 c 13.97,63.6 33.98,126.4 62.45,181.4 -0.83,7.7 -1.38,11.9 -1.38,11.9 l 3.74,-7.4 c 7.65,14.5 15.91,28.4 24.8,41.6 0,0 -6.09,-24.8 -12.99,-66.9 9.68,-22.7 17.78,-46.5 24.6,-71.1 9,56 24.5,110.7 49.87,156.4 0,0 -16.64,-107 -3.62,-242.3 14.13,61.6 35.05,124.3 65.98,176.7 -0.26,6 -0.53,9.2 -0.53,9.2 l 2.53,-5.8 c 6.51,10.7 13.43,21.1 20.83,30.8 0,0 -5.77,-18.8 -12.9,-50.7 14.21,-39.2 22.39,-82.6 26.48,-126.7 17.5,66.8 43.5,132.9 82.17,183.9 0,0 -28.3,-92.2 -37.04,-216.4 h 3.33 c 16.69,57.1 40.02,112.6 72.62,157.3 -12.58,76.7 -16.08,154.9 -2.05,225 0,0 15.21,-96.6 60.66,-223.1 18.07,55.9 25.36,93.1 25.36,93.1 1.62,-10.1 2.76,-20.4 3.49,-30.8 2.13,35.4 6.63,70.1 14.18,103.1 -2.7,7.3 -4.3,11.2 -4.3,11.2 1.85,-2.1 3.67,-4.1 5.47,-6.2 3.8,15.8 8.32,31.3 13.63,46.2 0,0 0.3,-25.5 4.19,-68 33.29,-43.3 60.76,-94.1 83.39,-147.4 -4.86,89.8 1.18,182 28.97,260.2 0,0 1.59,-135.8 45.01,-302.7 -3.96,87 2.51,175.6 29.4,251.2 0,0 1.43,-121.9 38.54,-276.7 48.91,220.9 25.56,420 25.56,420 51.1,-100.8 65.6,-232.1 65.44,-349.8 12.72,93.3 36.25,184.7 76.6,261.7 0,0 -1.1,-8.4 -2.57,-24 14.72,32.2 31.76,62.4 51.53,89.5 0,0 -62.67,-217.8 -40.1,-461.4 20.07,82.6 48.77,178.3 88.83,269.4 -10.45,55.7 -20.17,89.4 -20.17,89.4 12.88,-17.6 24.61,-36.5 35.28,-56.5 35.91,75.2 80,145.6 133.91,200.8 0,0 -54.77,-121.1 -93.21,-294.2 17.88,-50.6 31.07,-103.8 40.76,-155.7 1.4,103.7 15.75,213.2 57.65,300.7 0,0 -15.06,-160.1 20.58,-351.4 1.28,104.1 15.6,214.2 57.67,302.1 0,0 -12.44,-132.4 12.1,-300.3 4.42,91 20.02,183.6 56.41,259.6 0,0 -10.6,-112.9 7.08,-262.3 5.75,83.8 21.65,167.7 55.12,237.6 0,0 -10.14,-107.7 5.89,-251.9 h 2.38 c 24.14,246.3 -39.88,468 -39.88,468 72.71,-99.3 108.73,-241 126.47,-364.7 5.37,121.7 26.69,259.9 86.18,362.4 0,0 -39.2,-223.1 9.13,-463.1 h 3.69 c -0.15,141.9 -21.11,244.9 -21.11,244.9 40.74,-66.1 65.54,-147.9 80.24,-230.6 1.61,150.4 -21.02,261.6 -21.02,261.6 44.31,-71.9 69.78,-162.4 83.86,-252.4 6.45,169.5 -20.1,299.9 -20.1,299.9 51.26,-83.1 77.28,-191.1 89.71,-294.6 14.97,194 -17.17,351.7 -17.17,351.7 51.04,-82.7 77.04,-190.1 89.52,-293.1 6.28,80.4 20.3,165 48,239.7 -15.5,31.1 -25.82,48.7 -25.82,48.7 9.77,-8.1 19.26,-16.7 28.49,-25.8 -7.17,41.8 -12.99,66 -12.99,66 9.94,-14.9 19.21,-30.5 27.92,-46.7 5.5,11.7 11.43,23.1 17.8,34 0,0 -3.53,-20 -7.16,-54.6 8.8,-17.8 16.91,-36.2 24.43,-55 36.89,-47.2 68.69,-100.8 95.7,-155 -32.87,92.1 -55.63,191.6 -49,281.7 0,0 52.78,-183.8 176.82,-365.7 -37.66,140.1 -86.27,236.8 -86.27,236.8 68.08,-64.2 119.91,-156.2 158.57,-248.5 -39.71,204.3 -123.66,361 -123.66,361 56.76,-50.8 103.24,-120.3 140.72,-193.6 1.89,10.5 3.74,26 18.64,32.6 3.33,1.4 6.88,2.7 10.6,3.8 -7.22,75.2 -5.61,151 12.09,218.2 0,0 9.01,-93.3 44.93,-218.3 6.35,-1.9 12.58,-4.6 18.56,-8.1 13.74,-8 28.4,-10.7 44.33,-10.5 -6.23,67.6 -14.82,109.8 -14.82,109.8 19.87,-32.2 35.95,-68.2 48.91,-106.2 6.78,1.1 13.8,2.4 21.03,3.7 4.01,0.7 7.61,1.5 10.88,2.3 -1.78,32.3 -4.38,61.2 -7.11,85.4 -18.76,5.7 -36,12.2 -42.79,18.5 -17.84,16.5 -20.2,35 3.02,44.8 8.31,3.5 20.01,-0.1 32.08,-6.4 -2.41,15.1 -4.09,23.4 -4.09,23.4 6.22,-10.1 12.04,-20.6 17.54,-31.3 16.99,-11 32.32,-24.2 36.95,-26.8 9.08,-5 12.79,-13.1 31.98,-5 15.03,6.3 29.04,8.7 43.29,5.2 -3.53,24.2 -6.3,37.7 -6.3,37.7 8.35,-13.5 16.04,-27.7 23.11,-42.5 1.32,2.5 2.64,4.9 4.04,7.3 0,0 -0.54,-3.1 -1.41,-8.8 9.76,-0.1 7.4,15.5 11.32,23.6 4.72,9.8 22.88,29 40.05,43.8 17.17,14.8 45.44,65 53.19,79.4 7.75,14.5 9.76,21.2 15.82,20.9 6.06,-0.3 46.78,195.2 55.56,247.1 8.73,51.8 29.59,182.4 60.58,264.5 30.96,82.2 28.94,205.4 21.53,259.2 -7.39,53.9 -68.65,176.4 -12.12,316.5 56.55,140 120.51,274.6 120.51,274.6 0,0 -53.17,219.5 -61.91,250.5 -8.75,31 -2.03,35 -18.18,39 -16.15,4.1 -17.17,20.2 -26.58,36.7 -9.42,16.5 -28.61,99 -23.22,122.6 5.38,23.5 0.66,80.7 -12.79,100.9 -13.47,20.2 0.69,74.1 25.58,86.2 24.9,12.1 30.28,34.3 31.63,49.8 1.36,15.5 6.07,47.1 16.85,60.6 0,0 -14.82,96.9 -6.73,216.8 8.08,119.8 -34.33,193.9 -35,301.6 -0.71,107.7 -29.64,138 -38.36,159.5 -8.77,21.6 -11.48,61.3 -13.46,92.3 -2.05,30.9 -35.03,63.3 -40.42,80.1 -5.4,16.8 -12.44,35.7 -12.44,35.7 0,0 -125.88,-165.9 -132.61,-254.8 -6.73,-88.9 -4.71,-101.7 20.86,-125.9 25.59,-24.2 77.77,-59.9 96.61,-66 18.86,-6 81.13,-15.5 91.22,-78.1 10.1,-62.5 14.14,-125.8 -34.33,-114.4 0,0 11.46,-52.5 24.25,-57.9 12.8,-5.4 10.78,-41.1 -32.98,-55.2 0,0 -14.48,-3 -20.2,-12.1 -5.72,-9.1 -26.91,-13.1 -40.05,-15.2 -13.14,-2 -26.92,-6.4 -35.31,-12.1 -8.44,-5.7 -23.93,-9.4 -34.7,-2.7 -10.77,6.8 -67.97,48.9 -84.15,80.5 -16.15,31.6 -38.37,33.6 -41.72,47.1 -3.36,13.5 -21.55,53.2 -17.51,115.1 4.04,62 -26.24,49.2 -38.37,76.1 -12.11,26.9 -75.39,66.6 -95.6,109.1 -20.19,42.4 -65.97,119.8 -43.74,212.7 22.2,92.9 90.21,177.7 95.58,199.3 5.4,21.5 46.46,86.1 86.17,120.5 39.72,34.3 37.7,94.2 48.48,130.6 10.76,36.3 49.8,123.8 158.85,169 109.05,45.1 136.66,51.1 174.37,68.6 37.69,17.5 82.79,40.4 141.37,41.1 0,0 -37.69,99.6 -35.69,153.5 2.04,53.9 10.81,112.4 -0.66,130.6 -11.45,18.2 -16.82,84.8 -18.83,107 -2.02,22.3 -30.97,107.1 -21.55,136.7 9.42,29.6 23.56,43.8 35.66,76.1 12.13,32.3 14.82,74 39.06,81.4 24.22,7.4 18.84,24 31.99,34.4 13.1,10.4 23.54,1 32.63,24.9 9.1,23.9 14.82,26.6 15.49,19.9 0.67,-6.7 8.08,-17.9 20.87,-19.6 12.78,-1.6 28.26,9.5 33.32,17.2 5.06,7.7 -6.05,12.5 9.09,7.7 15.15,-4.6 26.22,-10.4 38.01,-9.7 11.79,0.7 3.38,11.8 18.88,11.4 15.46,-0.3 22.21,-10.1 36.36,-9.7 14.11,0.3 19.18,13.8 29.64,17.5 10.4,3.7 4,-6.4 13.1,-19.9 9.1,-13.4 30.3,-21.2 30.3,-42 0,-20.9 48.5,-3.4 64,-19.5 15.5,-16.2 86.1,-29.7 107,-10.1 0,0 -26.3,-25.6 -60.6,-25.6 0,0 39.1,-22.2 49.8,-23.6 10.8,-1.3 41.1,-41.7 48.5,-62.6 7.4,-20.9 5.4,-64.6 13.5,-76.7 8,-12.2 24.9,-43.8 16.8,-63.3 -8.1,-19.6 -33,-127.2 -47.1,-137.3 0,0 10.1,-37.1 1.3,-55.3 -8.7,-18.1 -11.4,-28.2 -12.1,-35.6 -0.7,-7.4 -4,-27.6 -23.6,-35.7 -19.5,-8.1 -45.7,-34.3 -55.1,-59.9 -9.5,-25.6 -40.4,-93.6 30.9,-114.5 71.4,-20.8 134,-37.3 171.4,-62.3 37.3,-24.8 57.8,-31.6 84.3,-40 0,0 97,13.8 146.8,0 49.8,-13.8 113.7,-55.5 142.7,-104.7 28.9,-49.1 41.4,-78.8 84.8,-100.6 43.4,-21.9 187.8,-150.8 225.5,-233.6 37.7,-82.8 61.2,-156.8 31.6,-263.2 -29.6,-106.4 -98.9,-293.5 -131.2,-374.3 -32.4,-80.8 -76.1,-151.5 -80.2,-187.9 -4,-36.3 -18.2,-105 -16.2,-125.2 2.1,-20.1 -14.1,-53.1 -35.6,-61.2 -21.6,-8.1 -88.9,-35 -121.9,-24.2 -33,10.7 -55.2,4 -74.7,26.9 -19.5,22.9 -16.2,61.9 -7.4,85.5 0,0 -31.3,6.7 -28.6,33 2.7,26.3 21.5,55.9 39,73.4 17.5,17.5 22.2,25.9 28.6,40 6.4,14.1 27.2,32 51.8,39.1 24.6,7 62.3,57.9 75.4,106.7 13.1,48.8 38.7,208.7 41.4,271.3 2.7,62.6 5.7,128.6 8.1,158.5 2.3,30 8,34.4 -7.8,38.7 -15.8,4.4 -214.4,76.5 -262.2,154.6 0,0 -39.1,-87.6 -59.9,-113.1 -20.9,-25.6 -65.3,-98.3 -67.3,-123.2 -2.1,-25 -3.4,-86.2 -12.8,-145.5 -9.5,-59.2 -41.8,-179.7 -31,-315.7 10.8,-136 3.7,-124.8 18.2,-134 14.4,-9 12.8,-23.2 19.1,-37 6.5,-13.8 18.2,-21.8 17.5,-37 -0.6,-15.1 9.4,-22.2 18.9,-26.2 9.4,-4.1 21.5,-46.1 24.2,-97.3 2.7,-51.2 8.1,-77.4 14.1,-96.3 6.1,-18.8 -5.3,-129.2 -25.5,-187.8 -20.2,-58.6 -43.1,-119.8 -62,-140 -18.8,-20.2 -26.9,-41.1 -44.4,-66.7 -17.5,-25.6 -62.6,-86.1 -88.2,-115.8 -25.6,-29.6 -16.1,-52.5 -8.7,-70.7 7.4,-18.1 9.7,-46.4 -8.8,-58.2 0,0 93.3,16.8 177.4,14.2 84.1,-2.8 169,2 188.8,3.7 0,0 20.9,6.7 21.5,12.1 0.8,5.4 20.6,15.1 34.7,14.8 14.2,-0.3 6.1,11.4 12.2,36.4 6,24.8 31.9,30.1 44.4,35.8 12.4,5.7 46.1,63.6 64.9,83.1 18.9,19.6 54.7,46.5 64,51.2 9.2,4.7 33.1,34.5 86.6,-16.3 53.6,-50.8 86.2,-90.9 97,-101 10.8,-10.1 30.3,-57.2 16.2,-113.8 -14.2,-56.5 -50.9,-45.7 -21.3,-101.6 29.7,-55.9 74.1,-160.2 26.3,-247.7 -47.8,-87.6 -126.6,-85.5 -158.2,-76.1 -31.6,9.4 -48.5,68 -57.2,88.9 -8.8,20.8 -24.9,22.2 -47.5,24.5 -22.5,2.4 -46.1,11.5 -58.9,28 -12.8,16.5 -40.9,21.7 -38.2,34.1 0,0 -54.8,11.5 -58.5,21.9 0,0 -106.8,-23.5 -205,-68.7 -98.3,-45.1 -172.4,-70 -202,-109 -29.6,-39 -55.2,-59.3 -88.8,-73.4 -33.7,-14.1 -34.4,-14.8 -54.6,-31.6 -20.2,-16.9 -75.4,-43.8 -110.38,-25.6 -34.99,18.2 -85.5,66 -96.28,95.6 0,0 -17.5,-46.4 -10.78,-123.2 6.74,-76.7 18.18,-257.2 -70.65,-425.4 -88.9,-168.4 -196.6,-369 -196.6,-369 0,0 12.11,-14.1 0,-28.3 -12.1,-14.1 -29.6,-41.7 -34.32,-66.6 -4.67,-24.6 -1.46,-35.4 -15.6,-53.2 8.77,-21.1 16.19,-43.2 22.5,-66 9.02,56 24.51,110.6 49.89,156.4 0,0 -16.65,-107 -3.62,-242.3 14.12,61.6 35.03,124.3 65.98,176.7 -0.27,6 -0.54,9.2 -0.54,9.2 l 2.55,-5.8 c 6.49,10.7 13.41,21 20.8,30.8 0,0 -5.74,-18.8 -12.87,-50.7 14.2,-39.2 22.38,-82.6 26.46,-126.7 17.49,66.8 43.5,132.9 82.17,183.8 0,0 -30.63,-99.7 -38,-231.6 4.25,15.7 8.97,31.3 14.21,46.6 l 0.93,62.6 c 5.06,-6.9 9.98,-14.1 14.78,-21.4 5.98,14.1 12.47,27.8 19.55,40.9 -7.03,46.9 -8.78,93.7 -1.81,137 0,0 7.64,-38.9 26.59,-96.9 2.01,2.9 4.06,5.7 6.15,8.4 0,0 -1.58,-5.1 -4.09,-14.6 7.47,-22.4 16.6,-47.5 27.58,-74.2 11.05,26.7 20.26,51.9 27.81,74.4 -2.19,8.1 -3.54,12.5 -3.54,12.5 1.79,-2.4 3.57,-4.8 5.29,-7.2 19.58,59.4 27.43,99.5 27.43,99.5 7.12,-44.2 5.14,-92.1 -2.25,-139.9 6.87,-12.7 13.18,-25.9 19.02,-39.5 5.12,7.8 10.35,15.5 15.75,22.9 l 1,-66.5 c 5.21,-15.3 9.92,-30.8 14.14,-46.4 -7.37,131.9 -38,231.5 -38,231.5 38.67,-50.9 64.65,-117 82.15,-183.8 4.1,44.1 12.3,87.5 26.5,126.7 -7.1,31.9 -12.9,50.7 -12.9,50.7 7.4,-9.8 14.3,-20 20.8,-30.8 l 2.6,5.8 c 0,0 -0.3,-3.2 -0.6,-9.2 31,-52.4 51.9,-115.1 66,-176.7 13,135.3 -3.6,242.3 -3.6,242.3 25.4,-45.7 40.9,-100.4 49.9,-156.4 6.8,24.6 14.9,48.4 24.6,71 -6.9,42.1 -13,67 -13,67 8.9,-13.2 17.1,-27.1 24.8,-41.6 l 3.7,7.4 c 0,0 -0.5,-4.2 -1.4,-11.9 36.5,-70.4 59,-153.6 72.8,-234.8 27,175.2 13.3,315.7 13.3,315.7 12.9,-26.8 23.3,-55.7 31.5,-85.9 7.4,41.9 18.5,82.2 34.4,118.9 0,0 -8,-141 26.1,-315 10.5,81.7 29.7,165.6 63.2,237.4 -1.1,7.7 -1.9,11.9 -1.9,11.9 1.4,-2.4 2.7,-4.8 4.1,-7.2 7,14.7 14.7,28.9 23.1,42.5 0,0 -5.1,-25.1 -10.3,-67.4 23.4,-49.2 39.5,-104.5 50.4,-161.2 14.3,88.8 39.6,177.8 83.3,248.7 0,0 -27.1,-133.2 -19.8,-305.3 14.4,85.9 39.5,171.3 81.8,239.8 0,0 -24.4,-119.6 -20.8,-278.6 94.5,206.2 113.8,405.7 113.8,405.7 31.8,-120.7 11.7,-269.1 -18.4,-392.2 43.3,117.4 108.4,248.8 200.4,331.2 0,0 -83.9,-156.7 -123.7,-361 38.7,92.3 90.6,184.3 158.6,248.5 0,0 -48.6,-96.7 -86.2,-236.7 124,181.9 176.8,365.6 176.8,365.6 6.6,-90.1 -16.1,-189.6 -49,-281.7 27,54.2 58.8,107.8 95.7,155 7.5,18.8 15.6,37.3 24.4,55.1 -3.6,34.5 -7.1,54.6 -7.1,54.6 6.3,-11 12.2,-22.4 17.8,-34.1 8.7,16.2 17.9,31.8 27.9,46.7 0,0 -5.9,-24.2 -13,-66 9.2,9.1 18.7,17.7 28.5,25.8 0,0 -10.4,-17.6 -25.8,-48.7 27.6,-74.7 41.7,-159.2 47.9,-239.6 12.5,102.9 38.5,210.3 89.6,293 0,0 -31.5,-154.5 -17.6,-345.8 h 1.1 c 12.7,101.7 38.7,207.2 89,288.7 0,0 -25.3,-124.4 -20.5,-288.1 h 2.3 c 14.5,86.1 39.6,171.8 82,240.6 0,0 -20.5,-100.8 -21.1,-240.2 h 4.1 c 15.1,75.4 39,148.9 76.2,209.2 0,0 -17.5,-85.9 -20.6,-208.8 l 9.8,0.1 c 37.8,225.8 2.5,426.9 2.5,426.9 59.5,-102.5 80.8,-240.7 86.2,-362.4 17.7,123.8 53.7,265.5 126.5,364.8 0,0 -57.3,-198.3 -43.1,-428.2 l 9.4,0.1 c 10.3,123.7 2,212 2,212 30,-62.7 45.9,-136.7 53,-211.6 h 5 c 13.6,136.3 4.2,236.2 4.2,236.2 33.3,-69.4 49.2,-152.6 55,-235.8 h 4.7 c 20.1,156.5 8.8,276.6 8.8,276.6 38.6,-80.7 53.9,-180 57.1,-276.2 h 5.2 c 29.7,179.7 16,325.5 16,325.5 41.9,-87.6 56.3,-197.1 57.7,-300.7 9.6,51.8 22.8,105 40.7,155.6 -38.4,173.1 -93.2,294.2 -93.2,294.2 53.9,-55.1 98,-125.6 133.9,-200.7 10.7,19.9 22.4,38.9 35.3,56.5 0,0 -9.7,-33.8 -20.2,-89.5 35.3,-80.3 61.8,-164.1 81.3,-239.4 h 9.9 c 15.2,231.2 -42.5,431.4 -42.5,431.4 19.8,-27.1 36.9,-57.3 51.6,-89.4 -1.5,15.5 -2.6,23.9 -2.6,23.9 40.4,-77 63.9,-168.4 76.6,-261.7 -0.2,117.7 14.3,249.1 65.5,349.9 0,0 -23.4,-199.2 25.5,-420.1 3,12.6 5.8,25 8.4,37.1 -12.2,11.2 -9.1,19.6 -4.9,22.5 4.1,2.9 5.7,2.5 10.5,5.6 7.4,38.4 12.5,73.4 16.1,103.5 -9.5,5.8 -16.2,13.4 -12.8,15.9 4.1,3.1 9.5,-0.1 14.5,-1.2 6.3,57.5 6.8,93.4 6.8,93.4 4.3,-12.2 8.1,-24.8 11.4,-37.6 1.1,1.8 1.4,0.4 4.9,0.2 3.9,-0.2 8.2,8.9 16.5,12 8.3,3.1 6.5,1.7 14.4,3.1 7.9,1.3 9.4,-4 20.1,-4.5 h 1.9 c 1,10.1 1.8,19.3 2.5,27.7 -5.5,4.5 -2.4,2.3 -4.2,6.1 -1.8,3.7 -2.1,3.5 -9.1,6.6 -7.1,3.1 -11.6,12.2 -16.1,18.4 -4.4,6.3 -2.5,4.5 -2.7,7.6 -0.1,3.1 -5,4.4 -13.4,15.5 -8.5,11.1 -5.4,14.2 -2.9,15.1 2.5,0.9 8.2,-6.2 12.2,-0.4 4,5.7 9,3.9 14.4,4.8 5.4,0.9 10.1,-2.2 16.2,-2.6 6.1,-0.5 13.6,-1.4 20.5,0.9 6.8,2.2 6.5,4.8 9.3,6.6 2.9,1.8 3.3,7.1 0.4,17.8 -2.9,10.6 -15.8,8.4 -17.6,20 -1.8,11.5 -1.1,0.8 -4.4,2.6 -3.2,1.8 -17.6,5.8 -20.5,11.6 -2.8,5.7 -6.1,4.4 -9.3,8.8 -3.2,4.4 -13.8,1.4 -17,5.8 -31,42.5 -8.4,16.8 9.4,16.8 5.1,0 18.4,9.4 24.5,12 6.1,2.7 11.2,0 18.3,1.4 7.2,1.3 5.1,7.1 5.1,7.1 0,0 11.5,7.1 12.2,10.2 0.7,3.1 -7.5,8.4 -7.9,12.4 -0.4,4 -0.7,2.2 -16.2,8.4 -15.5,6.2 -11.1,12 -7.5,12.9 3.6,0.9 2.8,0.4 15.4,0.9 12.6,0.4 6.5,4 12.6,9.3 6.1,5.3 4,2.7 8.3,4 4.3,1.3 -0.4,20.9 -4.7,22.6 -4.3,1.8 -6.1,5.4 -7.9,11.1 -1.8,5.8 -0.7,6.7 -2.9,10.2 -2.1,3.6 -30.8,17.3 -30.8,17.3 0,0 23.3,10.2 32.3,6.7 9,-3.6 11.5,15.5 15.1,16 3.6,0.4 16.9,-4 19.7,-1.8 2.9,2.2 -2.1,5.8 -6.4,15.5 -4.3,9.8 4.3,7.1 7.5,10.7 3.3,3.5 0,0.4 -1.4,7.1 -1.5,6.6 -0.4,1.7 -5.8,13.3 -5.4,11.5 4.7,10.2 4.7,10.2 0,0 9,-2.2 9,7.1 0,9.3 -3.3,9.8 -5.8,13.3 -2.5,3.5 -15.8,4.9 -16.2,8 -0.3,3.1 -7.8,12.4 -6.8,17.3 1.1,4.8 18.4,-8.4 23,-5.8 4.7,2.7 5.1,3.1 13.3,4.5 8.3,1.3 -2.5,8.4 -1.8,15.5 0.8,7.1 0.8,5.3 5.1,12.4 4.3,7.1 0,3.6 -5.8,13.3 -5.7,9.8 -12.2,19.6 -12.2,26.7 0,7.1 4.3,-4.5 14.4,10.6 l 15.8,0.9 c 0,0 7.2,9.8 13,24.8 5.7,15.1 5,11.6 7.9,31.1 2.8,19.5 10.8,13.3 3.6,26.6 -17,31.5 12.3,-17.5 13.6,41.8 0.5,20.9 1.6,17.9 3.2,22.5 0.1,13 6.9,13 6.9,0 1.7,-4.6 3,-11.7 3.2,-22.5 0.7,-31.1 14.4,-14.3 20.9,-21.4 6.5,-7.1 0,-7.1 -7.2,-20.4 -7.2,-13.3 0.7,-7.1 3.6,-26.6 2.9,-19.5 2.1,-16 7.9,-31.1 5.8,-15 12.9,-24.8 12.9,-24.8 l 15.9,-0.9 c 10,-15.1 14.4,-3.5 14.4,-10.6 0,-7.1 -6.5,-16.9 -12.3,-26.7 -5.7,-9.7 -10,-6.2 -5.7,-13.3 4.3,-7.1 4.3,-5.3 5,-12.4 0.7,-7.1 -10.1,-14.2 -1.8,-15.5 8.3,-1.4 8.6,-1.8 13.3,-4.5 4.7,-2.6 14.4,3.6 15.5,-1.3 1.1,-4.9 7.3,-7.1 7,-10.2 -0.4,-3.1 -20,-4.5 -22.5,-8 -2.5,-3.5 -5.7,-4 -5.7,-13.3 0,-9.3 9,-7.1 9,-7.1 0,0 10,1.3 4.6,-10.2 -5.4,-11.6 -4.3,-6.7 -5.7,-13.3 -1.5,-6.7 -4.7,-3.6 -1.5,-7.1 3.3,-3.6 11.9,-0.9 7.6,-10.7 -4.3,-9.7 -9.4,-13.3 -6.5,-15.5 2.9,-2.2 20.5,11.9 24.1,11.5 3.6,-0.5 1.8,-29.3 10.8,-25.7 9,3.5 13.7,-18.2 13.7,-18.2 0,0 -10.1,-2.2 -12.3,-5.8 -2.1,-3.5 -1,-4.4 -2.8,-10.2 -1.8,-5.7 -3.6,-9.3 -7.9,-11.1 -4.4,-1.7 -9.1,-21.3 -4.7,-22.6 4.3,-1.3 2.1,1.3 8.2,-4 6.2,-5.3 0,-8.9 12.6,-9.3 12.1,-0.4 62,8 8,-13.8 -15.5,-6.2 -15.9,-4.4 -16.2,-8.4 -0.4,-4 -8.7,-9.3 -7.9,-12.4 0.7,-3.1 12.2,-10.2 12.2,-10.2 0,0 -2.2,-5.8 5,-7.1 7.2,-1.4 12.2,1.3 18.4,-1.4 6.1,-2.6 19.4,-12 24.4,-12 5,0 7.9,0 7.9,0 0,0 0.4,-9.7 -2.9,-14.2 -3.2,-4.4 -9.3,-4 -12.5,-8.4 -3.3,-4.4 -6.5,-3.1 -9.4,-8.8 -2.9,-5.8 -17.2,-9.8 -20.5,-11.6 -3.2,-1.8 -2.5,8.9 -4.3,-2.6 -1.8,-11.6 -14.8,-9.4 -17.6,-20 -2.9,-10.7 -2.6,-16 0.3,-17.8 2.9,-1.8 2.5,-4.4 9.4,-6.6 6.8,-2.3 14.4,-1.4 20.5,-0.9 6.1,0.4 10.8,3.5 16.2,2.6 13,-2.1 34,14.3 39.5,12.4 2.5,-0.9 -2.7,-22.8 -15.8,-31.9 -13.1,-9.1 -13.3,-12.4 -13.5,-15.5 -0.2,-3.1 1.8,-1.3 -2.7,-7.6 -4.5,-6.2 -9,-15.3 -16,-18.4 -7,-3.1 -7.4,-2.9 -9.2,-6.6 -1.8,-3.8 1.5,-1.6 -4.3,-6.2 -4.9,-4 -7.7,-0.5 -11.8,-2.4 1.3,-7.9 2.3,-15.9 3.2,-23.9 3.3,-0.9 7.7,-1.5 13.1,-1.3 10.8,0.5 12.2,5.8 20.2,4.5 7.9,-1.4 6.1,0 14.3,-3.1 8.3,-3.1 12.6,-12.2 16.6,-12 3.9,0.2 3.8,2 5.4,-1.1 1.6,-3.1 2.3,-5.8 1.1,-8.9 -1.3,-3.1 -5.4,-6.4 -6,-10 -0.5,-3.5 5.6,1.1 -0.5,-4.9 -6.1,-6 -4,-0.9 -7,-6 -3.1,-5.1 -0.4,-14.2 4.9,-12.4 l 7.7,-2.3 c -2.5,9.9 -4,15.3 -4,15.3 4.2,-5.8 8.2,-11.7 12.1,-17.7 4.6,-1.4 9.1,-2.7 11.7,-3.3 6.1,-1.3 8.2,7.6 13.6,3.6 3.3,-2.5 -3.6,-12.6 -13.4,-20.4 24.7,-44.5 42.3,-95.8 54.9,-147.5 4.8,44 13.8,87.3 28.7,126.2 -6.6,32.1 -12,50.9 -12,50.9 7.2,-9.8 14,-20.2 20.3,-31.1 l 2.6,5.8 c 0,0 -0.3,-3.3 -0.7,-9.2 30,-52.9 49.8,-116 62.8,-177.8 15.5,135 0.7,242.3 0.7,242.3 23.3,-43.7 37.5,-95.1 45.8,-148.1 1.4,0.6 2.9,1.1 4.7,2 6.5,20.5 13.9,40.5 22.5,59.5 -6.2,42.2 -11.8,67.1 -11.8,67.1 8.6,-13.4 16.7,-27.4 24,-42 l 3.9,7.3 c 0,0 -0.6,-4.1 -1.6,-11.8 10,-20.2 18.9,-41.5 26.8,-63.4 18.4,-1.8 27,12.3 42.3,16.5 11.2,3.1 14.1,3.7 19.6,9.6 0.4,11.5 0.7,22.3 0.8,32.3 -3.7,1.3 -7.5,3.1 -10.7,6 -14.6,12.6 -23.3,12 -30.6,23.6 -7.2,11.6 -12.1,9.5 -34.9,11.6 -22.8,2.1 -50.4,22.6 -43.1,27.3 7.3,4.8 17.4,-3.1 25.7,-1.5 8.2,1.5 19.2,4.7 27.1,4.7 7.9,0 11.7,19.2 7.6,25.3 -4.1,6.1 -1.2,0 -9.5,7.1 -8.3,7.2 0,1.6 -0.7,5.9 -0.8,4.2 -6.4,8.2 -8.1,11.9 -1.7,3.7 -0.7,6.8 1.5,10.5 2.2,3.7 1.9,1.6 7.3,1.3 5.4,-0.2 11.2,10.6 22.4,14.3 11.2,3.7 8.8,2.1 19.5,3.7 10.7,1.6 12.7,-4.8 27.3,-5.3 14.6,-0.5 23.3,2.7 26.8,5.3 3.4,2.6 11.7,1.1 13.6,7.9 2,6.9 -8,9.6 -15.3,15.1 -7.3,5.6 -11.2,-1.1 -19,4.5 -7.8,5.5 -3.4,2.9 -5.9,7.4 -2.4,4.5 -2.9,4.2 -12.4,7.9 -9.5,3.7 -15.6,14.6 -21.7,22 -6.1,7.4 -3.4,5.2 -3.6,8.9 -0.3,3.7 -6.9,5.3 -18.3,18.5 -11.4,13.2 -7.3,16.9 -3.9,18 3.4,1 11.2,-7.4 16.6,-0.5 5.3,6.8 12.1,4.7 19.4,5.8 7.3,1 13.7,-2.7 21.9,-3.2 8.3,-0.5 18.6,-1.6 27.8,1.1 9.3,2.6 8.8,5.8 12.7,7.9 3.9,2.1 4.4,8.4 0.5,21.1 -3.9,12.7 -21.5,10.1 -23.9,23.8 -2.4,13.7 -1.5,1.1 -5.9,3.2 -4.3,2.1 -23.8,6.8 -27.7,13.7 -3.9,6.9 -8.3,5.3 -12.7,10.6 -4.4,5.3 -18.6,1.6 -23,6.9 -42,50.6 -11.3,20 12.8,20 6.8,0 24.8,11.1 33.1,14.3 8.3,3.2 15.1,0 24.8,1.6 9.8,1.6 6.9,8.4 6.9,8.4 0,0 15.6,8.5 16.5,12.2 1,3.7 -10.2,10 -10.7,14.8 -0.5,4.7 -1,2.6 -21.9,10 -20.9,7.4 -15.1,14.3 -10.2,15.4 4.8,1 3.9,0.5 20.9,1 17.1,0.5 8.8,4.8 17.1,11.1 8.2,6.3 5.3,3.2 11.2,4.8 5.8,1.5 -0.5,24.8 -6.4,26.9 -5.8,2.1 -8.2,6.4 -10.7,13.2 -2.4,6.9 -1,7.9 -3.9,12.2 -2.9,4.2 -41.7,20.5 -41.7,20.5 0,0 31.5,12.2 43.7,8 12.1,-4.2 15.5,18.5 20.4,19 4.9,0.5 22.9,-4.7 26.8,-2.1 3.9,2.6 -2.9,6.9 -8.8,18.5 -5.8,11.6 5.9,8.5 10.3,12.7 4.4,4.2 0,0.5 -2,8.4 -1.9,8 -0.5,2.2 -7.8,15.9 -7.3,13.7 6.4,12.1 6.4,12.1 0,0 12.1,-2.6 12.1,8.5 0,11.1 -4.4,11.6 -7.8,15.9 -3.4,4.2 -21.4,5.8 -21.9,9.5 -0.5,3.6 -10.7,14.7 -9.2,20.5 1.5,5.8 24.8,-10 31.1,-6.8 6.4,3.2 6.9,3.7 18,5.3 11.3,1.6 -3.4,10 -2.4,18.5 1,8.4 1,6.3 6.8,14.8 5.9,8.4 0,4.2 -7.8,15.8 -7.7,11.6 -16.5,23.2 -16.5,31.7 0,8.5 5.8,-5.3 19.5,12.7 l 21.4,1.1 c 0,0 9.7,11.6 17.5,29.5 7.8,18 6.9,13.8 10.7,37 3.9,23.3 14.7,15.9 4.9,31.7 -23,37.5 16.7,-20.9 18.5,49.7 0.7,25 2.2,21.4 4.3,26.9 0.1,15.4 9.3,15.4 9.4,0 2.2,-5.5 4,-13.9 4.3,-26.9 1,-37 19.5,-16.9 28.3,-25.4 8.7,-8.4 0,-8.4 -9.8,-24.3 -9.7,-15.8 1,-8.4 4.9,-31.7 3.9,-23.2 2.9,-19 10.7,-37 7.8,-17.9 17.5,-29.5 17.5,-29.5 l 21.5,-1.1 c 13.6,-18 19.4,-4.2 19.4,-12.7 0,-8.5 -8.7,-20.1 -16.5,-31.7 -7.8,-11.6 -13.6,-7.4 -7.8,-15.8 5.8,-8.5 5.8,-6.4 6.8,-14.8 1,-8.5 -13.6,-16.9 -2.4,-18.5 11.2,-1.6 11.7,-2.1 18,-5.3 6.3,-3.2 19.5,4.2 20.9,-1.6 1.5,-5.8 10,-8.5 9.5,-12.1 -0.5,-3.7 -27,-5.3 -30.4,-9.5 -3.4,-4.3 -7.8,-4.8 -7.8,-15.9 0,-11.1 12.2,-8.5 12.2,-8.5 0,0 13.6,1.6 6.3,-12.1 -7.3,-13.7 -5.8,-7.9 -7.8,-15.9 -1.9,-7.9 -6.3,-4.2 -1.9,-8.4 4.3,-4.2 16,-1.1 10.2,-12.7 -5.9,-11.6 -12.7,-15.9 -8.8,-18.5 3.9,-2.6 27.7,14.2 32.6,13.7 4.9,-0.6 2.5,-34.8 14.7,-30.6 12.1,4.2 18.5,-21.7 18.5,-21.7 0,0 -13.7,-2.6 -16.6,-6.8 -2.9,-4.3 -1.5,-5.3 -3.9,-12.2 -2.4,-6.8 -4.9,-11.1 -10.7,-13.2 -5.9,-2.1 -12.2,-25.4 -6.3,-26.9 5.8,-1.6 2.9,1.5 11.2,-4.8 8.2,-6.3 0,-10.6 17,-11.1 16.3,-0.5 84,9.5 10.7,-16.4 -20.9,-7.4 -21.4,-5.3 -21.9,-10 -0.5,-4.8 -11.7,-11.1 -10.7,-14.8 0.5,-1.9 4.7,-5 8.8,-7.6 1.5,0.1 2.9,0.2 4.4,0.4 18.7,3.2 43.7,9.6 61.7,9.6 17.9,0.1 26.6,39.1 17.2,51.4 -9.4,12.4 -2.8,0 -21.6,14.5 -18.8,14.5 0,3.2 -1.6,11.8 -1.7,8.6 -14.4,16.6 -18.3,24.1 -3.9,7.5 -1.7,14 3.3,21.5 5,7.5 4.4,3.2 16.6,2.7 12.2,-0.6 25.5,21.4 50.9,28.9 25.5,7.5 19.9,4.3 44.3,7.5 24.3,3.2 28.8,-9.6 62,-10.7 33.2,-1.1 53.1,5.4 60.8,10.7 7.8,5.4 26.6,2.2 31,16.1 4.5,13.9 -18.2,19.3 -34.8,30.6 -16.6,11.3 -25.5,-2.2 -43.2,9.1 -17.7,11.3 -7.8,5.9 -13.3,15 -5.5,9.1 -6.6,8.6 -28.2,16.1 -21.6,7.5 -35.4,29.5 -49.3,44.5 -13.8,15 -7.7,10.7 -8.3,18.2 -0.5,7.5 -15.5,10.8 -41.5,37.5 -26,26.9 -16.6,34.4 -8.9,36.5 7.8,2.2 25.5,-15 37.7,-1 12.2,13.9 27.7,9.6 44.3,11.7 16.6,2.2 30.9,-5.3 49.7,-6.4 18.9,-1.1 42.1,-3.2 63.1,2.2 21.1,5.3 20,11.7 28.8,16 8.9,4.3 10,17.2 1.1,42.9 -8.8,25.8 -48.7,20.4 -54.2,48.3 -5.6,27.9 -3.4,2.1 -13.3,6.4 -10,4.3 -54.2,13.9 -63.1,27.9 -8.8,13.9 -18.8,10.7 -28.8,21.4 -9.9,10.8 -42.2,3.3 -52.2,14 -95.4,102.7 -25.8,40.7 29,40.7 15.5,0 56.4,22.5 75.3,29 18.8,6.4 34.3,0 56.4,3.2 22.1,3.2 15.5,17.1 15.5,17.1 0,0 35.4,17.2 37.6,24.7 2.2,7.5 -23.2,20.4 -24.3,30 -1.1,9.7 -2.2,5.4 -49.8,20.4 -47.6,15 -34.3,29 -23.3,31.1 11.1,2.1 8.9,1.1 47.6,2.1 38.7,1.1 19.9,9.7 38.7,22.5 18.8,12.9 12.2,6.5 25.5,9.7 13.3,3.2 -1.1,50.4 -14.4,54.7 -13.3,4.3 -18.8,12.9 -24.3,26.8 -5.6,13.9 -2.2,16.1 -8.9,24.7 -6.6,8.5 -94.9,41.6 -94.9,41.6 0,0 71.7,24.8 99.3,16.3 27.7,-8.6 35.4,37.5 46.5,38.6 11.1,1 52,-9.7 60.9,-4.3 8.8,5.3 -6.7,13.9 -20,37.5 -13.2,23.6 13.3,17.2 23.3,25.7 10,8.6 0,1.1 -4.4,17.2 -4.5,16.1 -1.1,4.3 -17.7,32.2 -16.7,27.8 14.3,24.6 14.3,24.6 0,0 27.7,-5.3 27.7,17.2 0,22.5 -10,23.6 -17.7,32.1 -7.8,8.6 -48.7,11.8 -49.8,19.4 -1.1,7.5 -24.3,29.9 -20.9,41.7 3.3,11.8 56.3,-20.3 70.7,-13.9 14.4,6.4 15.5,7.5 40.9,10.7 25.5,3.3 -7.7,20.4 -5.5,37.6 2.2,17.1 2.2,12.8 15.5,30 13.2,17.2 0,8.6 -17.7,32.2 -17.8,23.5 -37.7,47.1 -37.7,64.3 0,17.2 13.3,-10.7 44.3,25.7 l 48.7,2.2 c 0,0 22.1,23.5 39.8,60 17.7,36.5 15.5,27.9 24.4,75.1 8.8,47.1 33.2,32.1 11,64.3 -52.2,75.9 37.9,-42.5 42.1,100.8 1.5,50.7 4.8,43.4 9.8,54.5 0.1,31.4 21.1,31.4 21.3,0 4.9,-11.1 9,-28.2 9.7,-54.5 2.3,-75.1 44.3,-34.3 64.2,-51.5 20,-17.1 0,-17.1 -22.1,-49.3 -22.1,-32.2 2.2,-17.2 11.1,-64.3 8.8,-47.2 6.6,-38.6 24.3,-75.1 17.7,-36.5 39.8,-60 39.8,-60 l 48.7,-2.2 c 31,-36.4 44.3,-8.5 44.3,-25.7 0,-17.2 -19.9,-40.8 -37.6,-64.3 -17.7,-23.6 -31,-15 -17.7,-32.2 13.2,-17.2 13.2,-12.9 15.5,-30 2.2,-17.2 -31,-34.3 -5.6,-37.6 25.5,-3.2 26.6,-4.3 41,-10.7 14.4,-6.4 44.2,8.6 47.5,-3.2 3.4,-11.8 22.6,-17.1 21.5,-24.6 -1.1,-7.6 -61.3,-10.8 -69,-19.4 -7.8,-8.5 -17.7,-9.6 -17.7,-32.1 0,-22.5 27.6,-17.2 27.6,-17.2 0,0 31,3.2 14.4,-24.6 -16.6,-27.9 -13.3,-16.1 -17.7,-32.2 -4.4,-16.1 -14.4,-8.6 -4.4,-17.2 9.9,-8.5 36.5,-2.1 23.2,-25.7 -13.3,-23.6 -28.8,-32.2 -19.9,-37.5 8.8,-5.4 63,28.8 74.1,27.7 11,-1 5.6,-70.6 33.2,-62 27.7,8.5 42.1,-44 42.1,-44 0,0 -31,-5.4 -37.7,-13.9 -6.6,-8.6 -3.3,-10.8 -8.8,-24.7 -5.6,-13.9 -11.1,-22.5 -24.4,-26.8 -13.2,-4.3 -27.6,-51.5 -14.4,-54.7 13.3,-3.2 6.7,3.2 25.5,-9.7 18.8,-12.8 0,-21.4 38.7,-22.5 37.1,-1 190.8,19.3 24.4,-33.2 -47.6,-15 -48.7,-10.7 -49.8,-20.4 -1.1,-9.6 -26.6,-22.5 -24.4,-30 2.2,-7.5 37.7,-24.7 37.7,-24.7 0,0 -6.7,-13.9 15.4,-17.1 22.2,-3.2 37.7,3.2 56.5,-3.2 18.8,-6.5 59.7,-29 75.2,-29 15.5,0 24.4,0 24.4,0 0,0 1.1,-23.6 -8.9,-34.3 -9.9,-10.7 -28.7,-9.6 -38.7,-20.4 -10,-10.7 -19.9,-7.5 -28.8,-21.4 -8.8,-14 -53.1,-23.6 -63.1,-27.9 -9.9,-4.3 -7.7,21.5 -13.2,-6.4 -5.6,-27.9 -45.4,-22.5 -54.3,-48.3 -8.8,-25.7 -7.7,-38.6 1.1,-42.9 8.9,-4.3 7.8,-10.7 28.8,-16 21,-5.4 44.3,-3.3 63.1,-2.2 18.8,1.1 33.2,8.6 49.8,6.4 40.2,-5.2 104.8,34.5 121.5,29.9 7.8,-2.2 -8.2,-55.1 -48.5,-77.1 -40.3,-21.9 -40.9,-30 -41.5,-37.5 -0.5,-7.5 5.5,-3.2 -8.3,-18.2 -13.8,-15 -27.7,-37 -49.3,-44.5 -21.5,-7.5 -22.7,-7 -28.2,-16.1 -5.5,-9.1 4.4,-3.7 -13.3,-15 -17.7,-11.3 -26.5,2.2 -43.1,-9.1 -16.6,-11.3 -39.3,-16.7 -34.9,-30.6 4.5,-13.9 23.3,-10.7 31,-16.1 7.8,-5.3 27.7,-11.8 60.9,-10.7 33.2,1.1 37.6,13.9 61.9,10.7 24.4,-3.2 18.9,0 44.3,-7.5 25.5,-7.5 38.8,-29.5 50.9,-28.9 12.2,0.5 11.6,4.8 16.6,-2.7 5,-7.5 7.2,-14 3.3,-21.5 -3.8,-7.5 -16.5,-15.5 -18.2,-24.1 -1.7,-8.6 17.1,2.7 -1.7,-11.8 -18.8,-14.5 -12.2,-2.1 -21.6,-14.5 -9.4,-12.3 -1.1,-34.3 15.1,-30 18.7,-4.3 66.1,-16 84.8,-19.2 18.7,-3.2 25.3,18.1 41.8,8.5 16.5,-9.6 -50.6,-68.3 -102.4,-72.6 -51.8,-4.2 -62.8,0 -79.3,-23.5 -16.5,-23.4 -36.4,-22.4 -69.4,-48 -33,-25.6 -87,-8.5 -49.6,-49.1 37.5,-40.5 33.1,-38.4 71.6,-48 38.6,-9.6 58.4,-43.7 111.3,-30.9 52.8,12.8 81,-33.1 90.9,-32.1 3.7,0.4 9.5,1.9 16.3,3.9 -15,43.2 -25.7,68.1 -25.7,68.1 17.6,-18.7 34.1,-38.9 49.5,-60.5 26.3,8.7 55.4,18.9 60.1,16.3 9.9,-5.4 -0.4,-40.7 -24.5,-71.3 16.5,-28 31.5,-57.4 45.2,-87.5 11.1,19.7 23.1,38.5 36.3,55.9 0,0 -10.3,-33.6 -21.7,-89.2 19.1,-45.7 35.4,-92.5 49.2,-138.2 h 41.8 c 0,184.8 -38.9,329.4 -38.9,329.4 19.3,-27.4 35.8,-57.9 49.9,-90.3 -1.2,15.5 -2.1,24 -2.1,24 38.9,-77.7 60.8,-169.4 71.9,-262.9 v 0 c 1.9,117.6 18.8,248.7 71.7,348.6 0,0 -0.7,-4.8 -1.6,-13.7 6.2,-2.1 18.6,-8.5 29.7,-8.5 6.8,0 24.9,11.1 33.1,14.2 8.3,3.2 15.1,0 24.9,1.6 9.7,1.6 6.8,8.5 6.8,8.5 0,0 15.6,8.4 16.6,12.1 0.9,3.7 -10.3,10.1 -10.8,14.8 -0.5,4.8 -0.9,2.7 -21.9,10.1 -20.9,7.4 -15.1,14.2 -10.2,15.3 4.9,1 3.9,0.5 20.9,1 17.1,0.6 8.8,4.8 17.1,11.1 8.3,6.4 5.3,3.2 11.2,4.8 5.8,1.6 -0.5,24.8 -6.3,26.9 -5.9,2.2 -8.3,6.4 -10.8,13.3 -2.4,6.8 -0.9,7.9 -3.9,12.1 -2.9,4.2 -41.7,20.5 -41.7,20.5 0,0 31.5,12.3 43.7,8 12.2,-4.2 15.6,18.5 20.5,19.1 4.8,0.5 22.8,-4.8 26.7,-2.2 3.9,2.7 -2.9,6.9 -8.7,18.5 -5.9,11.7 5.8,8.5 10.2,12.7 4.4,4.3 0,0.5 -2,8.5 -1.9,7.9 -0.4,2.1 -7.8,15.8 -7.2,13.8 6.4,12.2 6.4,12.2 0,0 12.2,-2.7 12.2,8.4 0,11.1 -4.4,11.7 -7.8,15.9 -3.4,4.2 -21.5,5.8 -22,9.5 -0.4,3.7 -10.6,14.8 -9.2,20.6 1.5,5.8 24.8,-10 31.2,-6.9 6.3,3.2 6.8,3.7 18,5.3 11.2,1.6 -3.4,10 -2.5,18.5 1,8.5 1,6.3 6.9,14.8 5.8,8.5 0,4.2 -7.8,15.9 -7.8,11.6 -16.6,23.2 -16.6,31.7 0,8.4 5.9,-5.3 19.5,12.6 l 21.4,1.1 c 0,0 9.8,11.6 17.6,29.6 7.7,17.9 6.8,13.7 10.7,37 3.9,23.2 14.6,15.8 4.8,31.7 -23,37.4 16.7,-21 18.5,49.6 0.7,25 2.2,21.4 4.3,26.9 0.1,15.5 9.4,15.5 9.4,0 2.2,-5.5 4,-13.9 4.3,-26.9 1,-36.9 19.5,-16.9 28.3,-25.3 8.7,-8.5 0,-8.5 -9.8,-24.3 -9.7,-15.9 1,-8.5 4.9,-31.7 3.9,-23.3 2.9,-19.1 10.7,-37 7.8,-18 17.6,-29.6 17.6,-29.6 l 21.4,-1.1 c 13.6,-17.9 19.5,-4.2 19.5,-12.6 0,-8.5 -8.8,-20.1 -16.6,-31.7 -7.8,-11.7 -13.6,-7.4 -7.8,-15.9 5.9,-8.5 5.9,-6.3 6.8,-14.8 1,-8.5 -13.6,-16.9 -2.4,-18.5 11.2,-1.6 11.7,-2.1 18,-5.3 6.3,-3.1 19.5,4.3 21,-1.6 1.4,-5.8 9.9,-8.4 9.4,-12.1 -0.5,-3.7 -27,-5.3 -30.4,-9.5 -3.4,-4.2 -7.8,-4.8 -7.8,-15.9 0,-11.1 12.2,-8.4 12.2,-8.4 0,0 13.6,1.6 6.3,-12.2 -7.3,-13.7 -5.8,-7.9 -7.8,-15.8 -1.9,-8 -6.3,-4.2 -1.9,-8.5 4.4,-4.2 16.1,-1 10.2,-12.7 -5.8,-11.6 -12.7,-15.8 -8.8,-18.5 3.9,-2.6 27.8,14.3 32.7,13.7 4.8,-0.5 2.4,-34.8 14.6,-30.6 12.2,4.3 18.5,-21.6 18.5,-21.6 0,0 -13.6,-2.7 -16.6,-6.9 -2.9,-4.2 -1.4,-5.3 -3.9,-12.1 -2.4,-6.9 -4.8,-11.1 -10.7,-13.3 -5.8,-2.1 -12.2,-25.3 -6.3,-26.9 5.8,-1.6 2.9,1.6 11.2,-4.8 8.3,-6.3 0,-10.5 17,-11.1 16.4,-0.5 84,9.5 10.8,-16.3 -21,-7.4 -21.5,-5.3 -22,-10.1 -0.5,-4.7 -11.7,-11.1 -10.7,-14.8 1,-3.7 16.6,-12.1 16.6,-12.1 0,0 -2.9,-6.9 6.8,-8.5 9.7,-1.6 16.6,1.6 24.8,-1.6 8.3,-3.1 26.3,-14.2 33.2,-14.2 6.8,0 10.7,0 10.7,0 0,0 0.5,-11.7 -3.9,-16.9 -4.4,-5.3 -12.7,-4.8 -17.1,-10.1 -4.4,-5.3 -8.7,-3.7 -12.6,-10.5 -3.9,-6.9 -23.4,-11.7 -27.8,-13.8 -4.4,-2.1 -3.4,10.6 -5.8,-3.1 -2.5,-13.8 -20,-11.2 -23.9,-23.8 -3.9,-12.7 -3.4,-19.1 0.5,-21.2 3.9,-2.1 3.4,-5.2 12.6,-7.9 9.3,-2.6 19.5,-1.6 27.8,-1.1 8.3,0.6 14.6,4.3 21.9,3.2 17.7,-2.5 46.1,17 53.5,14.7 3.4,-1 -3.6,-27.1 -21.3,-37.9 -17.8,-10.9 -18.1,-14.8 -18.3,-18.5 -0.3,-3.7 2.4,-1.6 -3.7,-9 -6,-7.4 -12.1,-18.2 -21.6,-21.9 -9.5,-3.7 -10,-3.5 -12.5,-8 -2.4,-4.5 2,-1.8 -5.8,-7.4 -7.8,-5.5 -11.7,1.1 -19,-4.4 -7.3,-5.6 -17.3,-8.3 -15.4,-15.1 2,-6.9 10.3,-5.3 13.7,-8 3.4,-2.6 12.2,-5.8 26.8,-5.2 14.6,0.5 16.5,6.8 27.3,5.2 10.7,-1.5 8.2,0 19.4,-3.7 11.2,-3.6 17.1,-14.5 22.4,-14.2 5.4,0.2 5.2,2.4 7.4,-1.3 2.1,-3.7 3.1,-6.9 1.4,-10.6 -1.7,-3.7 -7.3,-7.7 -8,-11.9 -0.8,-4.2 7.5,1.3 -0.8,-5.8 -8.2,-7.1 -5.3,-1.1 -9.4,-7.1 -4.2,-6.1 -0.5,-16.9 6.6,-14.8 8.2,-2.2 29.1,-7.9 37.3,-9.5 8.2,-1.6 11.1,8.9 18.4,4.2 5.5,-3.6 -10.2,-21.2 -28.1,-30.3 l 90.8,0.1 v 0"
         style="fill:#29472f;fill-opacity:1;fill-rule:evenodd;stroke:none;stroke-width:7.50232;stroke-dasharray:none"
         transform="matrix(0.13333333,0,0,-0.13333333,0,2666.6667)" />
      <text
         xml:space="preserve"
         style="font-style:normal;font-variant:normal;font-weight:bold;font-stretch:normal;font-size:186.667px;font-family:'Tamil MN';-inkscape-font-specification:'Tamil MN Bold';text-align:center;text-anchor:middle;fill:#f9f9f9;stroke:#000000;stroke-width:1.00031;stroke-dasharray:none"
         x="1327.3334"
         y="1610.959"
         id="text43"><tspan
           sodipodi:role="line"
           id="tspan43"
           x="1327.3334"
           y="1610.959"
           style="font-size:186.667px;stroke-width:1.00031;stroke-dasharray:none">RHODO RACE</tspan></text>
      <text
         xml:space="preserve"
         style="font-style:normal;font-variant:normal;font-weight:bold;font-stretch:normal;font-size:146.667px;font-family:'Tamil MN';-inkscape-font-specification:'Tamil MN Bold';text-align:center;text-anchor:middle;fill:#f9f9f9;stroke:#000000;stroke-width:1.00031;stroke-dasharray:none"
         x="1331.849"
         y="1830.1371"
         id="text44"><tspan
           sodipodi:role="line"
           id="tspan44"
           x="1331.849"
           y="1830.1371"
           style="font-size:146.667px;stroke-width:1.00031;stroke-dasharray:none">MOMCHILGRAD</tspan></text>
    </g>
  </g>
</svg>
