<?xml version="1.0" encoding="UTF-8"?><!DOCTYPE svg PUBLIC "-//W3C//DTD SVG 1.1 Basic//EN" "http://www.w3.org/Graphics/SVG/1.1/DTD/svg11-basic.dtd"><svg version="1.1" xmlns="http://www.w3.org/2000/svg" xmlns:xlink="http://www.w3.org/1999/xlink" class="mtk-elevation-svg" viewBox="0 0 2000 562.5" preserveAspectRatio="xMidYMid meet" style="overflow: hidden; position: relative;"><path fill="none" stroke="#000" d="M210,145.57142857142873L1900,145.57142857142873" class="mtk-elevation-y-grid" style="-webkit-tap-highlight-color: rgba(0, 0, 0, 0); pointer-events: none;" stroke-width="1px"></path><path fill="none" stroke="#000" d="M210,274.14285714285694L1900,274.14285714285694" class="mtk-elevation-y-grid" style="-webkit-tap-highlight-color: rgba(0, 0, 0, 0); pointer-events: none;" stroke-width="1px"></path><path fill="none" stroke="#000" d="M210,402.71428571428567L1900,402.71428571428567" class="mtk-elevation-y-grid" style="-webkit-tap-highlight-color: rgba(0, 0, 0, 0); pointer-events: none;" stroke-width="1px"></path><path fill="none" stroke="#000" d="M1616.0533212510081,57L1616.0533212510081,467" class="mtk-elevation-x-grid" style="-webkit-tap-highlight-color: rgba(0, 0, 0, 0); pointer-events: none;" stroke-width="1px"></path><path fill="none" stroke="#000" d="M1264.5399909382566,57L1264.5399909382566,467" class="mtk-elevation-x-grid" style="-webkit-tap-highlight-color: rgba(0, 0, 0, 0); pointer-events: none;" stroke-width="1px"></path><path fill="none" stroke="#000" d="M913.026660625505,57L913.026660625505,467" class="mtk-elevation-x-grid" style="-webkit-tap-highlight-color: rgba(0, 0, 0, 0); pointer-events: none;" stroke-width="1px"></path><path fill="none" stroke="#000" d="M561.5133303127516,57L561.5133303127516,467" class="mtk-elevation-x-grid" style="-webkit-tap-highlight-color: rgba(0, 0, 0, 0); pointer-events: none;" stroke-width="1px"></path><desc style="-webkit-tap-highlight-color: rgba(0, 0, 0, 0); transform: translate(0px, 20px);">Created with Raphaël 2.2.0</desc><defs style="-webkit-tap-highlight-color: rgba(0, 0, 0, 0); transform: translate(0px, 20px);"><linearGradient id="svgGradient" x2="0%" y2="100%"><stop offset="0%" stop-color="rgb(181,214,167)" stop-opacity="0.8" style=""></stop><stop offset="100%" stop-color="rgb(255,255,255)" stop-opacity="0.8" style=""></stop></linearGradient></defs><path fill="url(#svgGradient)" stroke="#000000" d="M210,467L210,420.7142857142857C214.69444444444446,420.0714285714285,233.4722222222222,417.5,238.16666666666666,416.85714285714283C242.86111111111111,416.2142857142856,233.47222222222226,421.89285714285705,238.16666666666666,416.85714285714283C242.8611111111111,411.8214285714286,256.94444444444446,390.49999999999994,266.3333333333333,386.6428571428571C275.72222222222223,382.7857142857142,285.1111111111111,399.8214285714286,294.5,393.7142857142857C303.8888888888889,387.60714285714283,313.27777777777777,368.3214285714286,322.6666666666667,350C332.0555555555556,331.6785714285714,341.4444444444444,301.3571428571429,350.83333333333337,283.7857142857143C360.2222222222222,266.2142857142857,369.61111111111114,257.2142857142857,379,244.57142857142856C388.38888888888886,231.92857142857142,397.77777777777777,216.82142857142853,407.16666666666663,207.9285714285714C416.5555555555556,199.03571428571425,425.9444444444444,198.39285714285708,435.3333333333333,191.21428571428567C444.72222222222223,184.03571428571425,454.11111111111114,178.57142857142856,463.5,164.85714285714283C472.88888888888886,151.1428571428571,482.2777777777778,118.24999999999996,491.66666666666663,108.92857142857139C501.0555555555555,99.60714285714282,510.44444444444434,102.82142857142854,519.8333333333333,108.92857142857139C529.2222222222222,115.03571428571423,538.611111111111,130.4642857142857,548,145.57142857142856C557.388888888889,160.67857142857142,566.7777777777778,194.5357142857143,576.1666666666667,199.57142857142856C585.5555555555557,204.6071428571428,594.9444444444445,186.07142857142856,604.3333333333334,175.78571428571428C613.7222222222222,165.5,623.111111111111,140.10714285714286,632.5,137.85714285714283C641.8888888888888,135.6071428571428,651.2777777777777,163.67857142857142,660.6666666666667,162.28571428571428C670.0555555555557,160.89285714285714,679.4444444444447,123.28571428571428,688.8333333333335,129.5C698.2222222222223,135.71428571428572,707.6111111111112,180.5,717.0000000000001,199.57142857142856C726.388888888889,218.6428571428571,735.7777777777778,229.3571428571428,745.1666666666667,243.92857142857142C754.5555555555555,258.5,763.9444444444445,278.4285714285714,773.3333333333334,287C782.7222222222222,295.5714285714286,792.111111111111,288.3928571428571,801.5,295.35714285714283C810.8888888888888,302.3214285714285,820.2777777777778,314.75,829.6666666666666,328.7857142857143C839.0555555555555,342.8214285714286,848.4444444444445,371.5357142857143,857.8333333333333,379.57142857142856C867.2222222222222,387.6071428571429,876.611111111111,375.0714285714286,885.9999999999999,377C895.3888888888887,378.9285714285714,904.7777777777777,382.1428571428571,914.1666666666665,391.1428571428571C923.5555555555553,400.1428571428571,932.9444444444443,428.9642857142857,942.3333333333331,431C951.7222222222221,433.0357142857143,961.1111111111109,411.3928571428571,970.4999999999998,403.35714285714283C979.8888888888886,395.3214285714285,989.2777777777775,392.75,998.6666666666664,382.7857142857143C1008.0555555555552,372.8214285714286,1017.444444444444,353.8571428571429,1026.833333333333,343.57142857142856C1036.222222222222,333.2857142857143,1045.6111111111106,320.5357142857143,1054.9999999999995,321.07142857142856C1064.3888888888885,321.60714285714283,1073.7777777777776,340.0357142857143,1083.1666666666663,346.7857142857143C1092.5555555555552,353.5357142857143,1101.9444444444441,354.7142857142857,1111.333333333333,361.57142857142856C1120.722222222222,368.4285714285715,1130.1111111111106,379.7857142857142,1139.4999999999995,387.92857142857144C1148.8888888888885,396.0714285714286,1158.2777777777771,407.1071428571429,1167.666666666666,410.42857142857144C1177.055555555555,413.74999999999994,1186.4444444444437,412.6785714285714,1195.8333333333328,407.85714285714283C1205.2222222222217,403.0357142857142,1214.6111111111106,392.10714285714283,1223.9999999999995,381.5C1233.3888888888885,370.8928571428571,1242.7777777777771,345.8214285714286,1252.166666666666,344.2142857142857C1261.555555555555,342.60714285714283,1270.9444444444437,372.8214285714285,1280.3333333333328,371.85714285714283C1289.7222222222217,370.8928571428571,1299.1111111111106,339.8214285714286,1308.4999999999995,338.42857142857144C1317.8888888888885,337.0357142857143,1327.2777777777776,366.6071428571429,1336.6666666666663,363.5C1346.0555555555552,360.3928571428571,1355.4444444444441,333.6071428571429,1364.833333333333,319.7857142857143C1374.222222222222,305.9642857142857,1383.611111111111,291.9285714285714,1392.9999999999998,280.57142857142856C1402.3888888888887,269.2142857142857,1411.7777777777776,258.50000000000006,1421.1666666666665,251.64285714285714C1430.5555555555557,244.78571428571425,1439.9444444444443,247.4642857142857,1449.3333333333333,239.42857142857142C1458.7222222222224,231.3928571428571,1468.1111111111113,212.2142857142857,1477.5,203.4285714285714C1486.888888888889,194.6428571428571,1496.2777777777776,193.89285714285708,1505.6666666666667,186.71428571428567C1515.0555555555557,179.53571428571425,1524.4444444444443,157.67857142857142,1533.8333333333335,160.35714285714283C1543.2222222222224,163.03571428571425,1552.6111111111113,194.21428571428575,1562.0000000000002,202.78571428571428C1571.3888888888894,211.35714285714286,1580.777777777778,220.4642857142857,1590.166666666667,211.78571428571428C1599.5555555555559,203.1071428571429,1608.9444444444446,166.14285714285708,1618.3333333333337,150.71428571428567C1627.7222222222226,135.28571428571425,1637.1111111111115,126.49999999999994,1646.5000000000005,119.21428571428567C1655.8888888888896,111.92857142857139,1665.2777777777783,104.96428571428571,1674.6666666666672,107C1684.0555555555563,109.03571428571429,1693.4444444444453,126.92857142857139,1702.833333333334,131.4285714285714C1712.2222222222226,135.9285714285714,1721.6111111111115,123.1785714285714,1731.0000000000007,134C1740.3888888888896,144.82142857142858,1749.7777777777783,178.8928571428571,1759.1666666666674,196.35714285714283C1768.5555555555563,213.82142857142853,1777.9444444444453,217.0357142857143,1787.3333333333342,238.78571428571428C1796.7222222222233,260.5357142857143,1806.111111111112,304.24999999999994,1815.500000000001,326.85714285714283C1824.8888888888898,349.4642857142857,1834.277777777779,359.4285714285714,1843.6666666666677,374.42857142857144C1853.0555555555563,389.4285714285714,1862.4444444444455,409.1428571428571,1871.8333333333344,416.85714285714283C1881.2222222222235,424.5714285714285,1895.3055555555566,420.0714285714285,1900.0000000000011,420.7142857142857L1900,467Z" stroke-width="0" class="mtk-elevation-curve-fill" style="-webkit-tap-highlight-color: rgba(0, 0, 0, 0); pointer-events: none;" fill-opacity=""></path><path fill="none" stroke="rgb(181,214,167)" d="M210,420.7142857142857C214.69444444444446,420.0714285714285,233.4722222222222,417.5,238.16666666666666,416.85714285714283C242.86111111111111,416.2142857142856,233.47222222222226,421.89285714285705,238.16666666666666,416.85714285714283C242.8611111111111,411.8214285714286,256.94444444444446,390.49999999999994,266.3333333333333,386.6428571428571C275.72222222222223,382.7857142857142,285.1111111111111,399.8214285714286,294.5,393.7142857142857C303.8888888888889,387.60714285714283,313.27777777777777,368.3214285714286,322.6666666666667,350C332.0555555555556,331.6785714285714,341.4444444444444,301.3571428571429,350.83333333333337,283.7857142857143C360.2222222222222,266.2142857142857,369.61111111111114,257.2142857142857,379,244.57142857142856C388.38888888888886,231.92857142857142,397.77777777777777,216.82142857142853,407.16666666666663,207.9285714285714C416.5555555555556,199.03571428571425,425.9444444444444,198.39285714285708,435.3333333333333,191.21428571428567C444.72222222222223,184.03571428571425,454.11111111111114,178.57142857142856,463.5,164.85714285714283C472.88888888888886,151.1428571428571,482.2777777777778,118.24999999999996,491.66666666666663,108.92857142857139C501.0555555555555,99.60714285714282,510.44444444444434,102.82142857142854,519.8333333333333,108.92857142857139C529.2222222222222,115.03571428571423,538.611111111111,130.4642857142857,548,145.57142857142856C557.388888888889,160.67857142857142,566.7777777777778,194.5357142857143,576.1666666666667,199.57142857142856C585.5555555555557,204.6071428571428,594.9444444444445,186.07142857142856,604.3333333333334,175.78571428571428C613.7222222222222,165.5,623.111111111111,140.10714285714286,632.5,137.85714285714283C641.8888888888888,135.6071428571428,651.2777777777777,163.67857142857142,660.6666666666667,162.28571428571428C670.0555555555557,160.89285714285714,679.4444444444447,123.28571428571428,688.8333333333335,129.5C698.2222222222223,135.71428571428572,707.6111111111112,180.5,717.0000000000001,199.57142857142856C726.388888888889,218.6428571428571,735.7777777777778,229.3571428571428,745.1666666666667,243.92857142857142C754.5555555555555,258.5,763.9444444444445,278.4285714285714,773.3333333333334,287C782.7222222222222,295.5714285714286,792.111111111111,288.3928571428571,801.5,295.35714285714283C810.8888888888888,302.3214285714285,820.2777777777778,314.75,829.6666666666666,328.7857142857143C839.0555555555555,342.8214285714286,848.4444444444445,371.5357142857143,857.8333333333333,379.57142857142856C867.2222222222222,387.6071428571429,876.611111111111,375.0714285714286,885.9999999999999,377C895.3888888888887,378.9285714285714,904.7777777777777,382.1428571428571,914.1666666666665,391.1428571428571C923.5555555555553,400.1428571428571,932.9444444444443,428.9642857142857,942.3333333333331,431C951.7222222222221,433.0357142857143,961.1111111111109,411.3928571428571,970.4999999999998,403.35714285714283C979.8888888888886,395.3214285714285,989.2777777777775,392.75,998.6666666666664,382.7857142857143C1008.0555555555552,372.8214285714286,1017.444444444444,353.8571428571429,1026.833333333333,343.57142857142856C1036.222222222222,333.2857142857143,1045.6111111111106,320.5357142857143,1054.9999999999995,321.07142857142856C1064.3888888888885,321.60714285714283,1073.7777777777776,340.0357142857143,1083.1666666666663,346.7857142857143C1092.5555555555552,353.5357142857143,1101.9444444444441,354.7142857142857,1111.333333333333,361.57142857142856C1120.722222222222,368.4285714285715,1130.1111111111106,379.7857142857142,1139.4999999999995,387.92857142857144C1148.8888888888885,396.0714285714286,1158.2777777777771,407.1071428571429,1167.666666666666,410.42857142857144C1177.055555555555,413.74999999999994,1186.4444444444437,412.6785714285714,1195.8333333333328,407.85714285714283C1205.2222222222217,403.0357142857142,1214.6111111111106,392.10714285714283,1223.9999999999995,381.5C1233.3888888888885,370.8928571428571,1242.7777777777771,345.8214285714286,1252.166666666666,344.2142857142857C1261.555555555555,342.60714285714283,1270.9444444444437,372.8214285714285,1280.3333333333328,371.85714285714283C1289.7222222222217,370.8928571428571,1299.1111111111106,339.8214285714286,1308.4999999999995,338.42857142857144C1317.8888888888885,337.0357142857143,1327.2777777777776,366.6071428571429,1336.6666666666663,363.5C1346.0555555555552,360.3928571428571,1355.4444444444441,333.6071428571429,1364.833333333333,319.7857142857143C1374.222222222222,305.9642857142857,1383.611111111111,291.9285714285714,1392.9999999999998,280.57142857142856C1402.3888888888887,269.2142857142857,1411.7777777777776,258.50000000000006,1421.1666666666665,251.64285714285714C1430.5555555555557,244.78571428571425,1439.9444444444443,247.4642857142857,1449.3333333333333,239.42857142857142C1458.7222222222224,231.3928571428571,1468.1111111111113,212.2142857142857,1477.5,203.4285714285714C1486.888888888889,194.6428571428571,1496.2777777777776,193.89285714285708,1505.6666666666667,186.71428571428567C1515.0555555555557,179.53571428571425,1524.4444444444443,157.67857142857142,1533.8333333333335,160.35714285714283C1543.2222222222224,163.03571428571425,1552.6111111111113,194.21428571428575,1562.0000000000002,202.78571428571428C1571.3888888888894,211.35714285714286,1580.777777777778,220.4642857142857,1590.166666666667,211.78571428571428C1599.5555555555559,203.1071428571429,1608.9444444444446,166.14285714285708,1618.3333333333337,150.71428571428567C1627.7222222222226,135.28571428571425,1637.1111111111115,126.49999999999994,1646.5000000000005,119.21428571428567C1655.8888888888896,111.92857142857139,1665.2777777777783,104.96428571428571,1674.6666666666672,107C1684.0555555555563,109.03571428571429,1693.4444444444453,126.92857142857139,1702.833333333334,131.4285714285714C1712.2222222222226,135.9285714285714,1721.6111111111115,123.1785714285714,1731.0000000000007,134C1740.3888888888896,144.82142857142858,1749.7777777777783,178.8928571428571,1759.1666666666674,196.35714285714283C1768.5555555555563,213.82142857142853,1777.9444444444453,217.0357142857143,1787.3333333333342,238.78571428571428C1796.7222222222233,260.5357142857143,1806.111111111112,304.24999999999994,1815.500000000001,326.85714285714283C1824.8888888888898,349.4642857142857,1834.277777777779,359.4285714285714,1843.6666666666677,374.42857142857144C1853.0555555555563,389.4285714285714,1862.4444444444455,409.1428571428571,1871.8333333333344,416.85714285714283C1881.2222222222235,424.5714285714285,1895.3055555555566,420.0714285714285,1900.0000000000011,420.7142857142857" stroke-width="6px" class="mtk-elevation-curve-stroke" style="-webkit-tap-highlight-color: rgba(0, 0, 0, 0);"></path><path fill="none" stroke="#000000" d="M210,467L1900,467" class="mtk-elevation-x-axe" style="-webkit-tap-highlight-color: rgba(0, 0, 0, 0);" stroke-width="3px"></path><path fill="none" stroke="#000000" d="M210,57L210,477" class="mtk-elevation-y-axe" style="-webkit-tap-highlight-color: rgba(0, 0, 0, 0);" stroke-width="3px"></path><text x="210" y="482" text-anchor="middle" font-family="&quot;Arial&quot;" font-size="40" stroke="none" fill="#000000" style="dominant-baseline: hanging; pointer-events: none; font-size: 40px;" class="mtk-elevation-x-axe-info mtk-elevation-axe-label mtk-elevation-text"><tspan style="-webkit-tap-highlight-color: rgba(0, 0, 0, 0);" dy="2.9446420669555664">km</tspan></text><text x="561.5133303127516" y="482" text-anchor="middle" font-family="&quot;Arial&quot;" font-size="40" stroke="none" fill="#000000" style="dominant-baseline: hanging; pointer-events: none; font-size: 40px;" class="mtk-elevation-x-axe-label mtk-elevation-axe-label mtk-elevation-text"><tspan style="-webkit-tap-highlight-color: rgba(0, 0, 0, 0);" dy="2.9446420669555664">10</tspan></text><text x="913.026660625505" y="482" text-anchor="middle" font-family="&quot;Arial&quot;" font-size="40" stroke="none" fill="#000000" style="dominant-baseline: hanging; pointer-events: none; font-size: 40px;" class="mtk-elevation-x-axe-label mtk-elevation-axe-label mtk-elevation-text"><tspan style="-webkit-tap-highlight-color: rgba(0, 0, 0, 0);" dy="2.9446420669555664">20</tspan></text><text x="1264.5399909382566" y="482" text-anchor="middle" font-family="&quot;Arial&quot;" font-size="40" stroke="none" fill="#000000" style="dominant-baseline: hanging; pointer-events: none; font-size: 40px;" class="mtk-elevation-x-axe-label mtk-elevation-axe-label mtk-elevation-text"><tspan style="-webkit-tap-highlight-color: rgba(0, 0, 0, 0);" dy="2.9446420669555664">30</tspan></text><text x="1616.0533212510081" y="482" text-anchor="middle" font-family="&quot;Arial&quot;" font-size="40" stroke="none" fill="#000000" style="dominant-baseline: hanging; pointer-events: none; font-size: 40px;" class="mtk-elevation-x-axe-label mtk-elevation-axe-label mtk-elevation-text"><tspan style="-webkit-tap-highlight-color: rgba(0, 0, 0, 0);" dy="2.9446420669555664">40</tspan></text><text x="195" y="402.71428571428567" text-anchor="end" font-family="&quot;Arial&quot;" font-size="40" stroke="none" fill="#000000" style="dominant-baseline: central; font-size: 40px;" class="mtk-elevation-y-axe-label mtk-elevation-axe-label mtk-elevation-text"><tspan style="-webkit-tap-highlight-color: rgba(0, 0, 0, 0);" dy="2.944633347647482">300</tspan></text><text x="195" y="274.14285714285694" text-anchor="end" font-family="&quot;Arial&quot;" font-size="40" stroke="none" fill="#000000" style="dominant-baseline: central; font-size: 40px;" class="mtk-elevation-y-axe-label mtk-elevation-axe-label mtk-elevation-text"><tspan style="-webkit-tap-highlight-color: rgba(0, 0, 0, 0);" dy="2.9446159090312563">500</tspan></text><text x="195" y="145.57142857142873" text-anchor="end" font-family="&quot;Arial&quot;" font-size="40" stroke="none" fill="#000000" style="dominant-baseline: central; font-size: 40px;" class="mtk-elevation-y-axe-label mtk-elevation-axe-label mtk-elevation-text"><tspan style="-webkit-tap-highlight-color: rgba(0, 0, 0, 0);" dy="2.944628987993667">700</tspan></text><text x="190" y="52" text-anchor="end" font-family="&quot;Arial&quot;" font-size="40" stroke="none" fill="#000000" style="-webkit-tap-highlight-color: rgba(0, 0, 0, 0); text-anchor: end; font-family: Arial; font-size: 40px; cursor: default;" class="mtk-elevation-y-axe-info mtk-elevation-axe-label mtk-elevation-text"><tspan style="-webkit-tap-highlight-color: rgba(0, 0, 0, 0);" dy="2.9446420669555664">m</tspan></text><circle cx="210" cy="420.7142857142857" r="12" fill="rgb(190,97,147)" stroke="rgb(190,97,147)" class="mtk-elevation-curve-start-point" style="-webkit-tap-highlight-color: rgba(0, 0, 0, 0);" fill-opacity="0.85" stroke-opacity="0.85"></circle><text x="220" y="390.7142857142857" text-anchor="start" font-family="&quot;Arial&quot;" font-size="40" stroke="none" fill="#000000" style="-webkit-tap-highlight-color: rgba(0, 0, 0, 0); text-anchor: start; font-family: Arial; font-size: 40px; pointer-events: none;" class="mtk-elevation-curve-start-label mtk-elevation-text" fill-opacity="1"><tspan style="-webkit-tap-highlight-color: rgba(0, 0, 0, 0);" dy="2.944602830069414">272m</tspan></text><circle cx="1900" cy="420.7142857142857" r="12" fill="rgb(190,97,147)" stroke="rgb(190,97,147)" class="mtk-elevation-curve-end-point" style="-webkit-tap-highlight-color: rgba(0, 0, 0, 0);" fill-opacity="0.85" stroke-opacity="0.85"></circle><text x="1890" y="390.7142857142857" text-anchor="end" font-family="&quot;Arial&quot;" font-size="40" stroke="none" fill="#000000" style="-webkit-tap-highlight-color: rgba(0, 0, 0, 0); text-anchor: end; font-family: Arial; font-size: 40px;" class="mtk-elevation-curve-end-label mtk-elevation-text" fill-opacity="1"><tspan style="-webkit-tap-highlight-color: rgba(0, 0, 0, 0);" dy="2.944602830069414">272m</tspan></text><circle cx="1664.5945945945946" cy="95.42857142857139" r="12" fill="rgb(190,97,147)" stroke="rgb(190,97,147)" class="mtk-elevation-curve-top-point" style="-webkit-tap-highlight-color: rgba(0, 0, 0, 0);" fill-opacity="0.85" stroke-opacity="0.85"></circle><text x="1619.5945945945946" y="110.42857142857139" text-anchor="end" font-family="&quot;Arial&quot;" font-size="40" stroke="none" fill="#000000" style="-webkit-tap-highlight-color: rgba(0, 0, 0, 0); text-anchor: end; font-family: Arial; font-size: 40px; pointer-events: none;" class="mtk-elevation-curve-top-label mtk-elevation-text" fill-opacity="1"><tspan style="-webkit-tap-highlight-color: rgba(0, 0, 0, 0);" dy="2.944639887128517">778m</tspan></text></svg>